<?xml version="1.0" standalone="no"?>
<!DOCTYPE svg PUBLIC "-//W3C//DTD SVG 1.1//EN" "http://www.w3.org/Graphics/SVG/1.1/DTD/svg11.dtd" >
<svg>
<metadata>
Created by FontForge 20090914 at Thu Mar 28 04:12:45 2013
 By www-data
TrueType font: Copyright &#194;&#169; 1991, 1994 ParaGraph. Technical realization by TeamAXis Corp. Hinted with AXisType ToolKit: Copyright &#194;&#169; 1992, 1994 by Dmitry Komissarov. Avant Garde Gothic is a registered trade mark of International Typeface Corporation.
</metadata>
<defs>
<font id="AvantGardeCTT-Bold" horiz-adv-x="560" >
  <font-face 
    font-family="AvantGardeCTT"
    font-weight="700"
    font-stretch="normal"
    units-per-em="1000"
    panose-1="0 0 0 0 0 0 0 0 0 0"
    ascent="800"
    descent="-200"
    x-height="554"
    cap-height="740"
    bbox="-45.999 -215.001 1248 980"
    underline-thickness="50"
    underline-position="-75"
    unicode-range="U+0020-U+2122"
  />
<missing-glyph horiz-adv-x="980" 
d="M61 0v980h858v-980h-858zM858 61v858h-736v-858h736z" />
    <glyph glyph-name=".notdef" horiz-adv-x="980" 
d="M61 0v980h858v-980h-858zM858 61v858h-736v-858h736z" />
    <glyph glyph-name="space" unicode=" " horiz-adv-x="233" 
 />
    <glyph glyph-name="exclam" unicode="!" horiz-adv-x="280" 
d="M206 188h-133v552h133v-552zM206 0h-133v127h133v-127z" />
    <glyph glyph-name="quotedbl" unicode="&#x22;" horiz-adv-x="360" 
d="M285 514h-75v226h75v-226zM150 514h-75v226h75v-226z" />
    <glyph glyph-name="numbersign" unicode="#" 
d="M556 521l-19 -98h-114l-19 -92h114l-20 -98h-114l-48 -233h-90l48 233h-86l-48 -233h-90l48 233h-114l20 98h114l19 92h-114l19 98h114l45 219h90l-45 -219h86l45 219h90l-45 -219h114zM333 423h-86l-19 -92h86z" />
    <glyph glyph-name="dollar" unicode="$" 
d="M494 249c0 -49.333 -13.501 -92.001 -40.501 -128.001s-62.833 -60.333 -107.5 -73v-133h-125v133c-44.667 10 -82.334 32 -113.001 66c-32.667 36 -49 77 -49 123v12h133c0 -24.667 8.16699 -45.167 24.5 -61.5s36.833 -24.5 61.5 -24.5c26 0 46.833 8.16699 62.5 24.5
s23.5 37.166 23.5 62.499c0 22 -7.33301 40.667 -22 56c-16.667 17.333 -48.167 33.166 -94.5 47.499s-80.166 30.5 -101.499 48.5c-38.667 32.667 -58 79.334 -58 140.001c0 45.333 11.5 84.333 34.5 117s55.833 54.334 98.5 65.001v131h125v-131
c38 -10 68.333 -30.833 91 -62.5s34 -67.5 34 -107.5h-125c0 16.667 -6 30.834 -18 42.501s-28 17.5 -48 17.5s-36.167 -6.5 -48.5 -19.5s-18.5 -28.5 -18.5 -46.5c0 -26.667 12 -47.667 36 -63c12.667 -8 35.334 -16.667 68.001 -26c46 -13.333 82.333 -31.333 109 -54
c45.333 -38 68 -90 68 -156z" />
    <glyph glyph-name="percent" unicode="%" horiz-adv-x="860" 
d="M835 162c0 -50 -17.5 -92.5 -52.5 -127.5s-77.5 -52.5 -127.5 -52.5s-92.5 17.5 -127.5 52.5s-52.5 77.5 -52.5 127.5s17.5 92.5 52.5 127.5s77.5 52.5 127.5 52.5s92.5 -17.5 127.5 -52.5s52.5 -77.5 52.5 -127.5zM631 740l-306 -740h-102l306 740h102zM380 573
c0 -50 -17.501 -92.499 -52.501 -127.499s-77.167 -52.5 -126.5 -52.5s-91.666 17.667 -126.999 53s-53 77.666 -53 126.999c0 50 17.5 92.5 52.5 127.5s77.5 52.5 127.5 52.5c49.333 0 91.5 -17.5 126.5 -52.5s52.5 -77.5 52.5 -127.5zM723.999 162.001
c0 19.333 -6.66699 35.666 -20 48.999s-29.666 20 -48.999 20s-35.666 -6.66699 -48.999 -20s-20 -29.666 -20 -48.999s6.66699 -35.666 20 -48.999s29.666 -20 48.999 -20s35.666 6.66699 48.999 20s20 29.666 20 48.999zM268.999 573.001
c0 19.333 -6.66602 35.6689 -19.999 49.002s-29.333 20 -48 20s-34.834 -6.83301 -48.501 -20.5s-20.5 -29.834 -20.5 -48.501c0 -18 6.66699 -34 20 -48s29.333 -21 48 -21c18 0 34 6.66699 48 20s21 29.666 21 48.999z" />
    <glyph glyph-name="ampersand" unicode="&#x26;" horiz-adv-x="680" 
d="M664 71l-97.001 -85.001l-101 106l-11 -16c-18 -25.333 -37.333 -45.333 -58 -60c-32.667 -22.667 -71.334 -34 -116.001 -34c-69.333 0 -127.666 21.667 -174.999 65s-71 99.333 -71 168c0 53.333 15.333 99.666 46 138.999c24 30.667 55 55.334 93 74.001
c-17.333 16.667 -31 34.334 -41 53.001c-14 26 -21 53 -21 81c0 54 18 99.333 54 136s80.667 55 134 55c52.667 0 97.334 -17.333 134.001 -52s55 -78 55 -130c0 -43.333 -12.667 -82 -38 -116c-19.333 -26 -45.333 -48 -78 -66l68 -76l72 123h147l-127 -223z
M362.999 563.999c0 17.333 -5.33203 32.167 -15.999 44.5s-26.667 18.5 -48 18.5c-20.667 0 -35.834 -6.66699 -45.501 -20s-14.5 -27.333 -14.5 -42c0 -16.667 7 -34.334 21 -53.001c4 -5.33301 12.333 -14.333 25 -27l4 -4c27.333 10 47 23 59 39
c10 12.667 15 27.334 15 44.001zM373 193l-115.001 129.001l-20 -9c-24 -10.667 -42.333 -26.667 -55 -48c-10 -16.667 -15 -35.334 -15 -56.001c0 -28 9.5 -51.833 28.5 -71.5s43.167 -29.5 72.5 -29.5c18.667 0 35.834 5.5 51.501 16.5s30.5 29.167 44.5 54.5z" />
    <glyph glyph-name="quotesingle" unicode="'" horiz-adv-x="220" 
d="M150 514h-76v226h76v-226z" />
    <glyph glyph-name="parenleft" unicode="(" horiz-adv-x="380" 
d="M349 -128c-90 36.667 -159.999 99.6689 -209.999 189.002c-43.333 78 -65 159.667 -65 245c0 86 21.333 167.333 64 244c50 90 120.333 153.333 211 190v-139c-54.667 -42.667 -93.334 -97.334 -116.001 -164.001c-14.667 -42.667 -22 -86.334 -22 -131.001
c0 -46 7 -89.667 21 -131c22.667 -66 61.667 -120.667 117 -164v-139z" />
    <glyph glyph-name="parenright" unicode=")" horiz-adv-x="380" 
d="M306 306c0 -86 -21.334 -167.335 -64.001 -244.002c-50 -90 -120.333 -153.333 -211 -190v139c54.667 42.667 93.334 97.334 116.001 164.001c14.667 42.667 22 86.334 22 131.001c0 46 -7 89.667 -21 131c-22.667 66 -61.667 120.667 -117 164v139
c90 -36.667 160 -99.667 210 -189c43.333 -78 65 -159.667 65 -245z" />
    <glyph glyph-name="asterisk" unicode="*" horiz-adv-x="440" 
d="M371 570l-102 6l56 -84l-56 -36l-47 92l-44 -92l-62 30l54 91l-100 -7v69l100 -6l-54 89l61 30l45 -90l46 91l57 -35l-54 -85l100 7v-70z" />
    <glyph glyph-name="plus" unicode="+" horiz-adv-x="600" 
d="M552 263h-194v-198h-116v198h-194v116h194v191h116v-191h194v-116z" />
    <glyph glyph-name="comma" unicode="," horiz-adv-x="280" 
d="M206 5l-0.00195312 -12c0 -20 -1.66699 -35.667 -5 -47c-5.33301 -19.333 -15.666 -36 -30.999 -50c-26 -24 -57.667 -36 -95 -36v67c16.667 0 30.334 4.83301 41.001 14.5s16 23.5 16 41.5v17h-59v133h133v-128z" />
    <glyph glyph-name="hyphen" unicode="-" horiz-adv-x="420" 
d="M349 259h-278v118h278v-118z" />
    <glyph glyph-name="period" unicode="." horiz-adv-x="280" 
d="M206 0h-133v133h133v-133z" />
    <glyph glyph-name="slash" unicode="/" horiz-adv-x="460" 
d="M443 740l-323 -868h-94l323 868h94z" />
    <glyph glyph-name="zero" unicode="0" 
d="M528 248c0 -82 -22.167 -146.833 -66.5 -194.5s-104.833 -71.5 -181.5 -71.5c-76 0 -136.333 23.667 -181 71s-67 112.333 -67 195v239c0 82 22.167 146.833 66.5 194.5s104.833 71.5 181.5 71.5c76 0 136.333 -23.667 181 -71s67 -112.333 67 -195v-239zM395 248v239
c0 56 -14.667 95.333 -44 118c-18.667 14.667 -42.334 22 -71.001 22c-29.333 0 -53 -7 -71 -21c-29.333 -22.667 -44 -62.334 -44 -119.001v-239c0 -56 14.667 -95.333 44 -118c18.667 -14.667 42.334 -22 71.001 -22c29.333 0 53 7 71 21
c29.333 22.667 44 62.334 44 119.001z" />
    <glyph glyph-name="one" unicode="1" 
d="M440 0h-133v554l-152 -199l-105 80l237 305h153v-740z" />
    <glyph glyph-name="two" unicode="2" 
d="M520 0l-477.999 -0.000976562v126l255 237c31.333 29.333 51.666 50.333 60.999 63c19.333 26.667 29 56.334 29 89.001c0 30.667 -8.33301 56.334 -25 77.001c-19.333 23.333 -46.333 35 -81 35c-39.333 0 -69 -15.333 -89 -46c-16.667 -26 -25 -58.333 -25 -97h-133
c0 74 18.667 135.333 56 184c43.333 56.667 105.666 85 186.999 85c70.667 0 128.834 -21.833 174.501 -65.5s68.5 -101.834 68.5 -174.501c0 -44.667 -11.5 -87.167 -34.5 -127.5s-61.833 -84.833 -116.5 -133.5l-141 -126h292v-126z" />
    <glyph glyph-name="three" unicode="3" 
d="M518 227c0 -72.667 -24.1689 -131.666 -72.502 -176.999s-108.166 -68 -179.499 -68c-70 0 -129.333 22.667 -178 68s-73 101.666 -73 168.999h133c3.33301 -30.667 14.333 -56 33 -76c22 -23.333 50.667 -35 86 -35c34 0 62.167 11.5 84.5 34.5s33.5 51.5 33.5 85.5
c0 42 -12.667 73.5 -38 94.5s-61 31.5 -107 31.5h-23v126h19c22.667 0 41.334 3.33301 56.001 10c26.667 12.667 40 35 40 67c0 20.667 -5.5 37.5 -16.5 50.5s-26.167 19.5 -45.5 19.5c-18 0 -33.833 -5.83301 -47.5 -17.5s-20.5 -28.167 -20.5 -49.5h-133
c0 56.667 18.333 103 55 139s84.667 54 144 54c56 0 102.833 -17.833 140.5 -53.5s56.5 -83.5 56.5 -143.5c0 -23.333 -3.66699 -44.333 -11 -63c-10.667 -26.667 -28.334 -49.667 -53.001 -69c38.667 -16 67.834 -41.167 87.501 -75.5s29.5 -74.833 29.5 -121.5z" />
    <glyph glyph-name="four" unicode="4" 
d="M530 110h-78v-110h-133v110h-319v109l340 521h112v-504h78v-126zM319 236v278l-177 -278h177z" />
    <glyph glyph-name="five" unicode="5" 
d="M520 241c0 -74.667 -23.834 -136.496 -71.501 -185.496s-108.834 -73.5 -183.501 -73.5c-71.333 0 -130.333 23.333 -177 70c-44 44 -69.333 99.667 -76 167h133c5.33301 -32.667 18.333 -59.334 39 -80.001s47.334 -31 80.001 -31c36 0 65.5 12.167 88.5 36.5
s34.5 57.166 34.5 98.499c0 37.333 -11.5 68.166 -34.5 92.499s-52.833 36.5 -89.5 36.5c-19.333 0 -37.5 -4.16699 -54.5 -12.5s-31.833 -21.833 -44.5 -40.5l-119 33l70 388h341l-7 -126h-235l-23 -137c14.667 7.33301 29.667 12.666 45 15.999s31 5 47 5
c70.667 0 128.334 -25.667 173.001 -77c42.667 -48.667 64 -108.667 64 -180z" />
    <glyph glyph-name="six" unicode="6" 
d="M534 245c0 -75.333 -23.3311 -138.001 -69.998 -188.001s-108.334 -75 -185.001 -75c-74.667 0 -136.167 24.833 -184.5 74.5s-72.5 112.834 -72.5 189.501c0 26 4.16699 53.5 12.5 82.5s22.166 58.5 41.499 88.5l211 323h157l-165 -252l37 3
c61.333 0 112.333 -21.667 153 -65c43.333 -46 65 -106.333 65 -181zM401.002 240.999c0 37.333 -10.999 68.333 -32.999 93s-52 37 -90 37c-37.333 0 -67.166 -12.5 -89.499 -37.5s-33.5 -55.833 -33.5 -92.5c0 -38.667 11.167 -70.5 33.5 -95.5s52.166 -37.5 89.499 -37.5
s67.166 12.5 89.499 37.5s33.5 56.833 33.5 95.5z" />
    <glyph glyph-name="seven" unicode="7" 
d="M500 614l-267 -614h-148l276 614h-296v126h435v-126z" />
    <glyph glyph-name="eight" unicode="8" 
d="M526 221c0 -71.333 -23.333 -129.001 -70 -173.001s-105.334 -66 -176.001 -66c-70 0 -128.5 22 -175.5 66s-70.5 101.667 -70.5 173c0 44.667 11.333 84 34 118c20.667 31.333 49.667 55.333 87 72c-25.333 16.667 -44 37.5 -56 62.5s-18 50.5 -18 76.5
c0 52.667 15.667 98 47 136c36.667 44.667 87.334 67 152.001 67c58 0 105.667 -19 143 -57s56 -86.667 56 -146c0 -31.333 -7.66699 -59.666 -23 -84.999c-12.667 -21.333 -29.667 -39.333 -51 -54c33.333 -15.333 60.333 -36.333 81 -63c26.667 -34.667 40 -77 40 -127z
M358 546.999c0 22.667 -7.33301 41.667 -22 57s-33 23 -55 23c-22.667 0 -41.5 -7.5 -56.5 -22.5s-22.5 -34.167 -22.5 -57.5s7.5 -42.5 22.5 -57.5s33.833 -22.5 56.5 -22.5s41.167 7.5 55.5 22.5s21.5 34.167 21.5 57.5zM393 222.999c0 33.333 -10.667 61.333 -32 84
s-48.333 34 -81 34c-31.333 0 -58 -11.333 -80 -34s-33 -50.667 -33 -84c0 -32.667 10.667 -60 32 -82s48.333 -33 81 -33s59.667 11 81 33s32 49.333 32 82z" />
    <glyph glyph-name="nine" unicode="9" 
d="M534 491c0 -40.667 -7.66797 -78.999 -23.001 -114.999c-8.66699 -19.333 -24 -46 -46 -80l-196 -296h-157l169 251l-41 -3c-60 0 -110.667 22 -152 66c-44 46.667 -66 106 -66 178c0 75.333 23.333 137.666 70 186.999s108.334 74 185.001 74
c75.333 0 137 -24.667 185 -74s72 -112 72 -188zM400.999 496.001c0 38 -11 69.333 -33 94s-52 37 -90 37c-37.333 0 -67.166 -12.167 -89.499 -36.5s-33.5 -55.833 -33.5 -94.5c0 -40 12.667 -72 38 -96c22.667 -21.333 51 -32 85 -32c37.333 0 67.166 12.167 89.499 36.5
s33.5 54.833 33.5 91.5z" />
    <glyph glyph-name="colon" unicode=":" horiz-adv-x="280" 
d="M206 369h-133v133h133v-133zM206 0h-133v133h133v-133z" />
    <glyph glyph-name="semicolon" unicode=";" horiz-adv-x="280" 
d="M206 369h-133v133h133v-133zM206 5l-0.00195312 -12c0 -20 -1.66699 -35.667 -5 -47c-5.33301 -19.333 -15.666 -36 -30.999 -50c-26 -24 -57.667 -36 -95 -36v67c16.667 0 30.334 4.83301 41.001 14.5s16 23.5 16 41.5v17h-59v133h133v-128z" />
    <glyph glyph-name="less" unicode="&#x3c;" horiz-adv-x="600" 
d="M552 42l-509 225v98l509 225v-111l-362 -163l362 -163v-111z" />
    <glyph glyph-name="equal" unicode="=" horiz-adv-x="600" 
d="M552 358h-504v115h504v-115zM552 163h-504v115h504v-115z" />
    <glyph glyph-name="greater" unicode="&#x3e;" horiz-adv-x="600" 
d="M557 267l-509 -225v111l362 163l-362 163v111l509 -225v-98z" />
    <glyph glyph-name="question" unicode="?" 
d="M491 522c0 -41.333 -10.332 -76.3379 -30.999 -105.005c-5.33301 -7.33301 -28.666 -31.666 -69.999 -72.999c-19.333 -18.667 -34 -38.667 -44 -60c-12.667 -27.333 -19 -59.333 -19 -96h-133c0 50.667 7.33301 94.334 22 131.001c12 30 29.333 56.333 52 79l62 58
c18.667 20.667 28 43.334 28 68.001c0 29.333 -7.66699 53.333 -23 72c-17.333 20.667 -41 31 -71 31c-28.667 0 -51.334 -10 -68.001 -30s-25 -45 -25 -75h-133c0 62.667 18 115.334 54 158.001c41.333 48.667 98.666 73 171.999 73c75.333 0 133.333 -23.667 174 -71
c35.333 -41.333 53 -94.666 53 -159.999zM327.001 -0.00488281h-133v127h133v-127z" />
    <glyph glyph-name="at" unicode="@" horiz-adv-x="740" 
d="M745 422c0 -81.333 -24.002 -148.331 -72.002 -200.998c-43.333 -48 -92.666 -72 -147.999 -72c-38 0 -64.667 16 -80 48c-14 -14 -32.167 -25.5 -54.5 -34.5s-43.5 -13.5 -63.5 -13.5c-41.333 0 -77.333 13 -108 39c-38.667 32.667 -58 79.667 -58 141
c0 64 18.667 118.333 56 163c40 47.333 90.667 71 152 71c34.667 0 64 -8 88 -24c14 -9.33301 26 -21.333 36 -36l11 51h96l-54 -277l-3 -25l2 -7c3.33301 -5.33301 9.33301 -8 18 -8c26.667 0 51 17.667 73 53s33 79.666 33 132.999c0 84 -29.333 149.667 -88 197
c-52 42 -116 63 -192 63c-90.667 0 -165 -29.667 -223 -89s-87 -135 -87 -227c0 -94.667 31.333 -171.334 94 -230.001c60 -56.667 135 -85 225 -85c30 0 59 4 87 12s54.333 18.667 79 32l36 -56c-33.333 -22 -71 -37.667 -113 -47c-32 -7.33301 -65.333 -11 -100 -11
c-112 0 -204 36 -276 108s-108 164.333 -108 277s36.167 205.167 108.5 277.5s165.833 108.5 280.5 108.5c98.667 0 180.334 -27 245.001 -81c72 -60 108 -143.333 108 -250zM464.998 369.002c0 30 -8.33398 52.665 -25.001 67.998c-14 12.667 -31 19 -51 19
c-24.667 0 -47 -8.33301 -67 -25c-26 -21.333 -39 -51.333 -39 -90c0 -25.333 6.83301 -45.833 20.5 -61.5s32.834 -23.5 57.501 -23.5c13.333 0 27.5 3.33301 42.5 10s26.5 14.834 34.5 24.501s14.5 20.834 19.5 33.501s7.5 27.667 7.5 45z" />
    <glyph glyph-name="A" unicode="A" horiz-adv-x="740" 
d="M733 0h-151l-76 191h-272l-76 -191h-151l308 740h110zM454 324l-84 216l-84 -216h168z" />
    <glyph glyph-name="B" unicode="B" horiz-adv-x="580" 
d="M548 225c0 -64 -19.332 -115 -57.999 -153c-49.333 -48 -128.333 -72 -237 -72h-185v740h178c81.333 0 143.666 -15.667 186.999 -47c46.667 -34 70 -83.333 70 -148c0 -39.333 -11 -73 -33 -101c-12.667 -16 -28.667 -29.333 -48 -40c40 -13.333 71 -36 93 -68
s33 -69 33 -111zM366.001 531c0 31.333 -12.333 53 -37 65c-15.333 7.33301 -35.333 11 -60 11h-64v-152h64c30 0 53.667 6.5 71 19.5s26 31.833 26 56.5zM411.001 226c0 23.333 -6 42.667 -18 58c-19.333 25.333 -52.333 38 -99 38h-89v-189h89c24 0 45.333 4 64 12
c35.333 15.333 53 42.333 53 81z" />
    <glyph glyph-name="C" unicode="C" horiz-adv-x="780" 
d="M760 528h-156.003c-22 28 -46.333 49.333 -73 64c-33.333 18.667 -71 28 -113 28c-72 0 -131.833 -24.833 -179.5 -74.5s-71.5 -108.167 -71.5 -175.5c0 -70.667 24.167 -130.834 72.5 -180.501s108.166 -74.5 179.499 -74.5c34.667 0 67.334 7 98.001 21
s57.334 35.667 80.001 65h159c-31.333 -67.333 -75.666 -120 -132.999 -158c-60.667 -40.667 -130 -61 -208 -61c-119.333 0 -215.666 43.333 -288.999 130c-64 76 -96 162 -96 258c0 94 31.667 178.333 95 253c74 86.667 171.333 130 292 130c77.333 0 146 -19.667 206 -59
s105.667 -94.666 137 -165.999z" />
    <glyph glyph-name="D" unicode="D" horiz-adv-x="700" 
d="M670 366c0 -46 -6.33301 -89.332 -19 -129.999c-20.667 -66 -56 -118.667 -106 -158c-66.667 -52 -156.334 -78 -269.001 -78h-208v740h205c104.667 0 189.334 -21.667 254.001 -65c52.667 -34.667 91 -84 115 -148c18.667 -48.667 28 -102.334 28 -161.001zM533 366.001
c0 100.667 -35.333 170 -106 208c-40.667 22 -94.667 33 -162 33h-60v-474h67c66 0 118.667 10.667 158 32c68.667 37.333 103 104.333 103 201z" />
    <glyph glyph-name="E" unicode="E" horiz-adv-x="520" 
d="M465 0h-397v740h397v-133h-260v-171h249v-133h-249v-170h260v-133z" />
    <glyph glyph-name="F" unicode="F" horiz-adv-x="480" 
d="M444 607h-239v-171h228v-133h-228v-303h-137v740h376v-133z" />
    <glyph glyph-name="G" unicode="G" horiz-adv-x="840" 
d="M818 377c0 -102 -30.0029 -189.667 -90.0029 -263c-72 -88 -173 -132 -303 -132c-125.333 0 -224.666 41.333 -297.999 124c-64.667 72.667 -97 159 -97 259c0 98.667 33 185.667 99 261c74.667 84.667 172.667 127 294 127c84.667 0 158.667 -20.333 222 -61
s108.666 -97.334 135.999 -170.001h-164c-19.333 32 -45.166 56.333 -77.499 73s-71.166 25 -116.499 25c-81.333 0 -145.666 -27 -192.999 -81c-42 -47.333 -63 -103.666 -63 -168.999c0 -68 22.333 -126.333 67 -175c49.333 -53.333 114.333 -80 195 -80
c47.333 0 90.333 11 129 33s67.667 55.333 87 100h-309v129h482z" />
    <glyph glyph-name="H" unicode="H" horiz-adv-x="680" 
d="M612 0h-137v310h-270v-310h-137v740h137v-297h270v297h137v-740z" />
    <glyph glyph-name="I" unicode="I" horiz-adv-x="280" 
d="M208 0h-137v740h137v-740z" />
    <glyph glyph-name="J" unicode="J" horiz-adv-x="480" 
d="M412 218c0 -76 -16 -133.666 -48 -172.999c-34 -42 -84.333 -63 -151 -63c-56 0 -104.333 18 -145 54s-61 80.667 -61 134h137c4 -36.667 25 -55 63 -55c29.333 0 49 11 59 33c6 13.333 9 33.666 9 60.999v531h137v-522z" />
    <glyph glyph-name="K" unicode="K" horiz-adv-x="620" 
d="M599 0h-164l-230 324v-324h-137v740h137v-321l230 321h164l-279 -364z" />
    <glyph glyph-name="L" unicode="L" horiz-adv-x="440" 
d="M431 0h-363v740h137v-607h226v-133z" />
    <glyph glyph-name="M" unicode="M" horiz-adv-x="900" 
d="M832 0h-137v554l-187 -554h-116l-187 554v-554h-137v740h186l196 -566l196 566h186v-740z" />
    <glyph glyph-name="N" unicode="N" horiz-adv-x="740" 
d="M672 0h-137l-330 500v-500h-137v740h137l330 -500v500h137v-740z" />
    <glyph glyph-name="O" unicode="O" horiz-adv-x="840" 
d="M810 366c0 -107.333 -37.5 -198.166 -112.5 -272.499s-167.5 -111.5 -277.5 -111.5s-202.5 37.167 -277.5 111.5s-112.5 165.166 -112.5 272.499c0 108 37.5 199.5 112.5 274.5s167.5 112.5 277.5 112.5s202.5 -37.5 277.5 -112.5s112.5 -166.5 112.5 -274.5zM673 369
c0 69.333 -24.168 128.5 -72.501 177.5s-108.5 73.5 -180.5 73.5c-72.667 0 -133 -24.333 -181 -73s-72 -108 -72 -178c0 -70.667 24.333 -130.667 73 -180s108.334 -74 179.001 -74c72.667 0 133.167 24.833 181.5 74.5s72.5 109.5 72.5 179.5z" />
    <glyph glyph-name="P" unicode="P" 
d="M540 509c0 -60 -17.001 -109.668 -51.001 -149.001c-46 -53.333 -117.333 -80 -214 -80h-70v-280h-137v740h207c102.667 0 176.334 -29.667 221.001 -89c29.333 -39.333 44 -86.666 44 -141.999zM402.999 509.999c0 39.333 -15.001 66.667 -45.001 82
c-19.333 10 -43.333 15 -72 15h-81v-194h81c40.667 0 70.334 8.33301 89.001 25s28 40.667 28 72z" />
    <glyph glyph-name="Q" unicode="Q" horiz-adv-x="840" 
d="M826 -18c-34 0 -62.999 2.66602 -86.999 7.99902c-38 8.66699 -73 24.667 -105 48c-36 -21.333 -76 -36.666 -120 -45.999c-31.333 -6.66699 -62 -10 -92 -10c-108 0 -200.333 37 -277 111s-115 164.667 -115 272c0 100.667 32 188 96 262c72.667 84 169.667 126 291 126
c113.333 0 207.166 -35.5 281.499 -106.5s111.5 -164.833 111.5 -281.5c0 -56 -9.33301 -106 -28 -150c-14 -32.667 -33 -62.667 -57 -90c8.66699 -5.33301 21.667 -10 39 -14s38 -6 62 -6v-123zM673.001 362.999c0 66.667 -20.668 124.333 -62.001 173
c-47.333 56 -110.333 84 -189 84c-73.333 0 -134.166 -23.5 -182.499 -70.5s-72.5 -105.5 -72.5 -175.5v-19c0 -6 0.666992 -13 2 -21c34 8.66699 68 13 102 13c71.333 0 139.666 -15.667 204.999 -47c50.667 -24 97.334 -56 140.001 -96c14 14.667 25.667 32 35 52
c14.667 31.333 22 67 22 107zM519 138.998c-37.333 29.333 -77.332 52.832 -119.999 70.499s-82.667 26.5 -120 26.5c-23.333 0 -46 -4 -68 -12c26 -38 61.333 -66.333 106 -85c37.333 -16 76.666 -24 117.999 -24c13.333 0 26.833 1.83301 40.5 5.5
s28.167 9.83398 43.5 18.501z" />
    <glyph glyph-name="R" unicode="R" horiz-adv-x="580" 
d="M568 0h-169l-192 273l-2 -273h-137v740h214c108 0 185.333 -30.333 232 -91c30.667 -40 46 -88 46 -144c0 -60.667 -18.333 -113 -55 -157s-85 -69 -145 -75zM423 497c0 46 -18.667 77.667 -56 95c-21.333 10 -48.333 15 -81 15h-81v-220h81c33.333 0 60 4.66699 80 14
c38 17.333 57 49.333 57 96z" />
    <glyph glyph-name="S" unicode="S" horiz-adv-x="520" 
d="M493 216c0 -66 -22.4971 -121.502 -67.4971 -166.502s-102.5 -67.5 -172.5 -67.5c-61.333 0 -115 18.667 -161 56c-52 42.667 -78 99.334 -78 170.001h143c0 -28 9.66699 -50.5 29 -67.5s42.666 -25.5 69.999 -25.5c30 0 54.167 8.83301 72.5 26.5
s27.5 39.834 27.5 66.501c0 32.667 -12.333 59.667 -37 81c-16.667 14 -40.334 26.333 -71.001 37c-62.667 21.333 -107.334 42.333 -134.001 63c-48.667 37.333 -73 88.666 -73 153.999c0 54 18.333 101 55 141c42 46 97 69 165 69c66.667 0 120 -22 160 -66
c36 -40 54 -88 54 -144h-141c0 20.667 -6 38 -18 52c-14 16.667 -33.667 25 -59 25c-26 0 -45.667 -7.5 -59 -22.5s-20 -33.5 -20 -55.5c0 -26 10.667 -46.667 32 -62c12.667 -9.33301 33.667 -18.666 63 -27.999c64 -20 110 -40.667 138 -62
c54.667 -41.333 82 -99.333 82 -174z" />
    <glyph glyph-name="T" unicode="T" horiz-adv-x="420" 
d="M416 607h-137v-607h-137v607h-137v133h411v-133z" />
    <glyph glyph-name="U" unicode="U" horiz-adv-x="640" 
d="M572 278c0 -99.333 -25 -174.999 -75 -226.999c-44 -46 -103 -69 -177 -69c-66 0 -120.667 18.667 -164 56c-58.667 50.667 -88 130.667 -88 240v462h137v-467c0 -44.667 5.33301 -78.334 16 -101.001c18 -38 51.333 -57 100 -57c48 0 80.667 19 98 57
c10.667 23.333 16 57 16 101v467h137v-462z" />
    <glyph glyph-name="V" unicode="V" horiz-adv-x="700" 
d="M693 740l-286 -740h-114l-286 740h144l199 -563l199 563h144z" />
    <glyph glyph-name="W" unicode="W" horiz-adv-x="900" 
d="M895 740l-215 -740h-109l-121 489l-121 -489h-109l-215 740h140l129 -518l126 518h100l126 -518l129 518h140z" />
    <glyph glyph-name="X" unicode="X" horiz-adv-x="680" 
d="M676 0h-160l-176 256l-175 -256h-160l255 370l-255 370h160l175 -257l176 257h160l-256 -370z" />
    <glyph glyph-name="Y" unicode="Y" horiz-adv-x="620" 
d="M622 740l-243 -467v-273h-137v273l-243 467h150l162 -341l161 341h150z" />
    <glyph glyph-name="Z" unicode="Z" horiz-adv-x="500" 
d="M480 0h-462v133l282 474h-266v133h430v-133l-282 -474h298v-133z" />
    <glyph glyph-name="bracketleft" unicode="[" horiz-adv-x="320" 
d="M292 -128c-34.667 6.66699 -65.833 18.335 -93.5 35.002s-51.167 38 -70.5 64c-22.667 30.667 -38 66.667 -46 108c-5.33301 27.333 -8 59 -8 95v264c0 39.333 2.33301 70.666 7 93.999c8 40.667 23.667 77 47 109c18 24.667 41.333 45.667 70 63s60 29.333 94 36v-143
c-30 -10 -51 -26.833 -63 -50.5s-18 -59.834 -18 -108.501v-264c0 -48 6 -84 18 -108s33 -41 63 -51v-143z" />
    <glyph glyph-name="backslash" unicode="\" horiz-adv-x="640" 
d="M503 0h-104l-315 740h104z" />
    <glyph glyph-name="bracketright" unicode="]" horiz-adv-x="320" 
d="M246 174c0 -39.333 -2.33398 -70.667 -7.00098 -94c-8 -40.667 -23.667 -77 -47 -109c-18 -24.667 -41.333 -45.667 -70 -63s-60 -29.333 -94 -36v143c30 10 51 26.833 63 50.5s18 59.834 18 108.501v264c0 48 -6 84 -18 108s-33 41 -63 51v143
c34.667 -6.66699 65.834 -18.334 93.501 -35.001s51.167 -38 70.5 -64c22.667 -30.667 38 -66.667 46 -108c5.33301 -27.333 8 -59 8 -95v-264z" />
    <glyph glyph-name="asciicircum" unicode="^" horiz-adv-x="600" 
d="M590 180h-134l-156 414l-156 -414h-134l230 560h120z" />
    <glyph glyph-name="underscore" unicode="_" horiz-adv-x="500" 
d="M500 -138h-500v90h500v-90z" />
    <glyph glyph-name="grave" unicode="`" horiz-adv-x="420" 
d="M346 705l-53 -92l-226 125l57 102z" />
    <glyph glyph-name="a" unicode="a" horiz-adv-x="660" 
d="M606 0h-122v75c-22 -30 -49.167 -53 -81.5 -69s-67.5 -24 -105.5 -24c-73.333 0 -136 26 -188 78c-55.333 55.333 -83 126 -83 212s26.5 157.5 79.5 214.5s118.167 85.5 195.5 85.5c80 0 140.333 -32 181 -96l2 78h122v-554zM481 278
c0 48.667 -14.499 88.834 -43.499 120.501s-67.5 47.5 -115.5 47.5c-47.333 0 -86.333 -16.333 -117 -49s-46 -74.334 -46 -125.001c0 -47.333 15.167 -86.5 45.5 -117.5s69.5 -46.5 117.5 -46.5c47.333 0 85.666 15.667 114.999 47s44 72.333 44 123z" />
    <glyph glyph-name="b" unicode="b" horiz-adv-x="660" 
d="M634 277c0 -76.667 -21.667 -142.668 -65 -198.001c-50.667 -64.667 -119.667 -97 -207 -97c-38 0 -72.833 7.33301 -104.5 22s-58.167 38.334 -79.5 71.001l-2 -75h-122v740h133v-244c45.333 50.667 102.333 76 171 76c90 0 160 -31.333 210 -94
c44 -55.333 66 -122.333 66 -201zM501 275.999c0 49.333 -14.332 89.998 -42.999 121.998s-66.667 48 -114 48c-46.667 0 -85.834 -15.167 -117.501 -45.5s-47.5 -69.166 -47.5 -116.499c0 -50 15.5 -91.833 46.5 -125.5s70.5 -50.5 118.5 -50.5
c46.667 0 84.5 15.833 113.5 47.5s43.5 71.834 43.5 120.501z" />
    <glyph glyph-name="c" unicode="c" horiz-adv-x="640" 
d="M610 180c-21.333 -60.667 -55.498 -108.832 -102.498 -144.499s-104.167 -53.5 -171.5 -53.5c-97.333 0 -174.333 32.333 -231 97c-50 56.667 -75 124 -75 202c0 74 24 138.667 72 194c56 64.667 132.333 97 229 97c68.667 0 127.667 -18.333 177 -55
s83.333 -85.667 102 -147h-150c-12.667 25.333 -30.167 44.333 -52.5 57s-48.5 19 -78.5 19c-51.333 0 -91.833 -16.167 -121.5 -48.5s-44.5 -71.833 -44.5 -118.5c0 -48.667 15 -89.334 45 -122.001s70.333 -49 121 -49c31.333 0 57.666 6 78.999 18s38.666 30 51.999 54
h150z" />
    <glyph glyph-name="d" unicode="d" horiz-adv-x="660" 
d="M606 0l-121.998 -0.000976562v75c-21.333 -28 -45.333 -49.667 -72 -65c-32.667 -18.667 -70 -28 -112 -28c-74.667 0 -139 28.167 -193 84.5s-81 125.833 -81 208.5c0 86 27 157 81 213s119.667 84 197 84c35.333 0 66.666 -6.16699 93.999 -18.5
s51.666 -31.166 72.999 -56.499l2 243h133v-740zM481.002 276.999c0 48.667 -15.3311 89 -45.998 121s-69.334 48 -116.001 48c-46 0 -84.167 -15.5 -114.5 -46.5s-45.5 -71.833 -45.5 -122.5c0 -48.667 15 -89 45 -121s68.333 -48 115 -48
c47.333 0 86.166 15.833 116.499 47.5s45.5 72.167 45.5 121.5z" />
    <glyph glyph-name="e" unicode="e" horiz-adv-x="640" 
d="M610 277l0.000976562 -15c0 -14 -1 -28.667 -3 -44h-434c8.66699 -33.333 26.167 -60 52.5 -80s57.166 -30 92.499 -30c23.333 0 45 3.66699 65 11c24 9.33301 43.667 23 59 41h150c-24.667 -58 -61.167 -102.167 -109.5 -132.5s-101.5 -45.5 -159.5 -45.5
c-92 0 -165.667 32.667 -221 98c-48 56.667 -72 121 -72 193c0 73.333 24 139 72 197c56 68 130.333 102 223 102c84 0 152.5 -28.167 205.5 -84.5s79.5 -126.5 79.5 -210.5zM471.001 336c-9.33301 34.667 -27.332 61.667 -53.999 81s-57.334 29 -92.001 29
c-36 0 -67.833 -10 -95.5 -30s-47.167 -46.667 -58.5 -80h300z" />
    <glyph glyph-name="f" unicode="f" horiz-adv-x="280" 
d="M274 436l-84 -0.000976562v-436h-133v436h-47v118h47v6c0 60.667 17.5 107.834 52.5 141.501s81.5 50.5 139.5 50.5h25v-133h-17c-21.333 0 -37.833 -5.83301 -49.5 -17.5s-17.5 -25.5 -17.5 -41.5v-6h84v-118z" />
    <glyph glyph-name="g" unicode="g" horiz-adv-x="660" 
d="M606 84c0 -94.667 -30.335 -169.334 -91.002 -224.001c-55.333 -50 -124.333 -75 -207 -75c-67.333 0 -126.166 17.667 -176.499 53s-83.833 85.333 -100.5 150h153c8 -24.667 23.167 -43.667 45.5 -57s48.5 -20 78.5 -20c46 0 85 14.667 117 44s48 64.666 48 105.999v20
c-22.667 -30 -47.5 -52 -74.5 -66s-57.833 -21 -92.5 -21c-77.333 0 -143.333 28.333 -198 85s-82 125.334 -82 206.001c0 84 27.5 152.833 82.5 206.5s121.833 80.5 200.5 80.5c30.667 0 58.334 -5 83.001 -15c38.667 -15.333 68.667 -41.666 90 -78.999l2 76h122v-470z
M480.998 281c0 50 -14.667 90.001 -44 120.001s-68.333 45 -117 45c-50 0 -90 -16.333 -120 -49c-27.333 -30 -41 -67 -41 -111c0 -46.667 13.667 -85.334 41 -116.001c30 -33.333 70 -50 120 -50c48.667 0 87.667 15.333 117 46s44 69 44 115z" />
    <glyph glyph-name="h" unicode="h" horiz-adv-x="600" 
d="M546 0h-132.999v294c0 56 -12 96.667 -36 122c-18.667 20 -43.667 30 -75 30c-47.333 0 -80 -19 -98 -57c-11.333 -23.333 -17 -55 -17 -95v-294h-133v740h133v-228c18.667 22 41 37.5 67 46.5s51.333 13.5 76 13.5c65.333 0 117.666 -22 156.999 -66
s59 -104.667 59 -182v-324z" />
    <glyph glyph-name="i" unicode="i" horiz-adv-x="240" 
d="M187 618h-133v122h133v-122zM187 0h-133v554h133v-554z" />
    <glyph glyph-name="j" unicode="j" horiz-adv-x="260" 
d="M206 618h-133v122h133v-122zM206 28c0 -86 -26.334 -146.667 -79.001 -182c-31.333 -20.667 -67.666 -31 -108.999 -31v129c24 -3.33301 40 5.66699 48 27c4.66699 12 7 31 7 57v526h133v-526z" />
    <glyph glyph-name="k" unicode="k" horiz-adv-x="580" 
d="M555 0h-178l-190 259v-259h-133v740h133v-447l178 261h157l-200 -271z" />
    <glyph glyph-name="l" unicode="l" horiz-adv-x="240" 
d="M187 0h-133v740h133v-740z" />
    <glyph glyph-name="m" unicode="m" horiz-adv-x="940" 
d="M887 0h-133.002v294c0 40.667 -5 72 -15 94c-17.333 38.667 -48.666 58 -93.999 58c-44 0 -74.667 -19 -92 -57c-10.667 -23.333 -16 -55 -16 -95v-294h-133v294c0 40.667 -5 72 -15 94c-17.333 38.667 -48.666 58 -93.999 58c-44 0 -74.667 -19 -92 -57
c-10.667 -23.333 -16 -55 -16 -95v-294h-133v554h122v-51c18.667 25.333 41.167 43.166 67.5 53.499s52.5 15.5 78.5 15.5c31.333 0 60.333 -6.33301 87 -19c32 -15.333 57 -37.666 75 -66.999c18 25.333 40 45 66 59c32.667 18 69.667 27 111 27
c68.667 0 123.5 -21.833 164.5 -65.5s61.5 -104.5 61.5 -182.5v-324z" />
    <glyph glyph-name="n" unicode="n" horiz-adv-x="600" 
d="M546 0h-133v294c0 56 -12 96.667 -36 122c-18.667 20 -43.667 30 -75 30c-47.333 0 -80 -19 -98 -57c-11.333 -23.333 -17 -55 -17 -95v-294h-133v554h122v-51c16.667 18.667 33.334 33 50.001 43c30 17.333 64.667 26 104 26c65.333 0 117.666 -22 156.999 -66
s59 -104.667 59 -182v-324z" />
    <glyph glyph-name="o" unicode="o" horiz-adv-x="640" 
d="M614 276c0 -81.333 -28.002 -150.667 -84.002 -208s-126 -86 -210 -86c-83.333 0 -153.166 28.5 -209.499 85.5s-84.5 126.5 -84.5 208.5s27.833 151.833 83.5 209.5s125.834 86.5 210.501 86.5c84 0 154 -28.667 210 -86s84 -127.333 84 -210zM480.998 275.999
c0 47.333 -14.667 87.498 -44 120.498s-68.333 49.5 -117 49.5c-48 0 -86.833 -16.5 -116.5 -49.5s-44.5 -73.167 -44.5 -120.5s14.667 -87.166 44 -119.499s68.333 -48.5 117 -48.5c47.333 0 86 16.333 116 49s45 72.334 45 119.001z" />
    <glyph glyph-name="p" unicode="p" horiz-adv-x="660" 
d="M634 277c0 -80 -24.333 -148 -73 -204c-52.667 -60.667 -121 -91 -205 -91c-29.333 0 -56.333 4.66699 -81 14c-34 12.667 -62.667 34 -86 64l-2 -245h-133v739h122v-72c22 34 52.667 58.667 92 74c28 10.667 57.333 16 88 16c78 0 143.833 -27.167 197.5 -81.5
s80.5 -125.5 80.5 -213.5zM501 278c0 42.667 -12.333 79.667 -37 111c-30 38 -70.667 57 -122 57c-48 0 -87.167 -15.833 -117.5 -47.5s-45.5 -72.167 -45.5 -121.5c0 -52 14.833 -93.167 44.5 -123.5s67.5 -45.5 113.5 -45.5c48 0 87.333 16 118 48s46 72.667 46 122z" />
    <glyph glyph-name="q" unicode="q" horiz-adv-x="660" 
d="M606 -185l-133.001 0.000976562v245c-23.333 -30.667 -52.666 -52.334 -87.999 -65.001c-24.667 -8.66699 -51.667 -13 -81 -13c-81.333 0 -148 27.667 -200 83s-78 126 -78 212c0 85.333 27.167 155.833 81.5 211.5s119.5 83.5 195.5 83.5
c38.667 0 73.5 -7.5 104.5 -22.5s55.833 -37.5 74.5 -67.5l2 72h122v-739zM480.999 275.001c0 50 -14.999 91 -44.999 123s-69 48 -117 48c-47.333 0 -85.833 -15.5 -115.5 -46.5s-44.5 -71.833 -44.5 -122.5c0 -48.667 13.833 -89 41.5 -121s67.167 -48 118.5 -48
c47.333 0 86.166 15.833 116.499 47.5s45.5 71.5 45.5 119.5z" />
    <glyph glyph-name="r" unicode="r" horiz-adv-x="320" 
d="M306 443c-40 0 -69.833 -12.168 -89.5 -36.501s-29.5 -60.166 -29.5 -107.499v-299h-133v554h122v-50c27.333 46 66.333 69 117 69c6 -0.666992 10.333 -1 13 -1v-129z" />
    <glyph glyph-name="s" unicode="s" horiz-adv-x="440" 
d="M420 173c0 -55.333 -18.333 -100.998 -55 -136.998s-85 -54 -145 -54c-61.333 0 -111 19.667 -149 59c-34.667 36 -52 80.333 -52 133h133c0 -20 7 -36 21 -48s31.333 -18 52 -18c18.667 0 33.667 5 45 15s17 24 17 42c0 15.333 -4.66699 27.666 -14 36.999
c-6.66699 6.66699 -18.667 13.334 -36 20.001c-9.33301 3.33301 -16.333 5.66602 -21 6.99902l-36 12c-39.333 12.667 -69.333 27.667 -90 45c-34 29.333 -51 67.666 -51 114.999c0 43.333 15 81.333 45 114c34.667 38 82 57 142 57c50.667 0 93.167 -15.833 127.5 -47.5
s51.5 -72.5 51.5 -122.5h-133c-1.33301 12 -6 22.333 -14 31s-20 13 -36 13c-16.667 0 -29.167 -4.5 -37.5 -13.5s-12.5 -20.167 -12.5 -33.5c0 -18.667 10 -33.334 30 -44.001c10 -5.33301 28.333 -11.333 55 -18c48 -11.333 83.667 -25.666 107 -42.999
c37.333 -28 56 -68.333 56 -121z" />
    <glyph glyph-name="t" unicode="t" horiz-adv-x="300" 
d="M287 436h-80v-436h-133v436h-65v118h65v186h133v-186h80v-118z" />
    <glyph glyph-name="u" unicode="u" horiz-adv-x="600" 
d="M546 0l-122 0.00195312v51c-22 -26.667 -48.333 -45.667 -79 -57c-21.333 -8 -43.666 -12 -66.999 -12c-90.667 0 -154 34.333 -190 103c-22.667 43.333 -34 99.666 -34 168.999v300h133v-282c0 -46 5.33301 -81 16 -105c17.333 -39.333 49.666 -59 96.999 -59
c46.667 0 78.667 19.333 96 58c11.333 25.333 17 60.666 17 105.999v282h133v-554z" />
    <glyph glyph-name="v" unicode="v" 
d="M553 554l-224 -554h-104l-224 554h148l128 -364l128 364h148z" />
    <glyph glyph-name="w" unicode="w" horiz-adv-x="799" 
d="M784 554l-200 -554h-82l-105 359l-105 -359h-82l-200 554h141l102 -338l92 338h104l92 -338l102 338h141z" />
    <glyph glyph-name="x" unicode="x" 
d="M556 0h-164l-112 179l-112 -179h-164l187 284l-172 270h155l105 -166l105 166h155l-176 -270z" />
    <glyph glyph-name="y" unicode="y" horiz-adv-x="580" 
d="M568 554l-318 -739h-143l102 237l-203 502h151l127 -355l133 355h151z" />
    <glyph glyph-name="z" unicode="z" horiz-adv-x="460" 
d="M442 0h-422v118l246 318h-218v118h377v-118l-246 -318h263v-118z" />
    <glyph glyph-name="braceleft" unicode="{" horiz-adv-x="340" 
d="M304 -128l-55.998 0.00292969c-17.333 0 -33.5 1.66699 -48.5 5s-29.167 10.333 -42.5 21c-16.667 12.667 -27.167 27.5 -31.5 44.5s-6.5 38.167 -6.5 63.5v146c0 18 -0.833008 31.833 -2.5 41.5s-6.5 20.167 -14.5 31.5s-17.333 20.166 -28 26.499
s-23.334 9.5 -38.001 9.5v90c14 0 26.5 3.16699 37.5 9.5s20.167 14.833 27.5 25.5s12.166 22 14.499 34s3.5 25.333 3.5 40v146c0 25.333 2.16699 46.5 6.5 63.5s14.833 31.833 31.5 44.5c12 10 26.167 16.833 42.5 20.5s32.5 5.5 48.5 5.5h56v-90h-10
c-38 0 -60.667 -16 -68 -48c-2.66699 -12 -4 -25.667 -4 -41v-127c0 -32.667 -4.66699 -58.334 -14 -77.001c-14 -28.667 -39.333 -45.334 -76 -50.001c36.667 -5.33301 62 -22.333 76 -51c9.33301 -18.667 14 -44.667 14 -78v-127c0 -33.333 5.5 -56.5 16.5 -69.5
s29.5 -19.5 55.5 -19.5h10v-90z" />
    <glyph glyph-name="bar" unicode="|" horiz-adv-x="600" 
d="M360 0h-119v740h119v-740z" />
    <glyph glyph-name="braceright" unicode="}" horiz-adv-x="340" 
d="M304 261c-14 0 -26.502 -3.16992 -37.502 -9.50293s-20.167 -14.833 -27.5 -25.5s-12.166 -22 -14.499 -34s-3.5 -25.333 -3.5 -40v-146c0 -25.333 -1.66699 -44.333 -5 -57c-5.33301 -21.333 -16.333 -38.333 -33 -51c-12 -10 -26.167 -16.833 -42.5 -20.5
s-32.5 -5.5 -48.5 -5.5h-56v90h10c38 0 60.667 16 68 48c2.66699 12 4 25.667 4 41v127c0 32.667 4.66699 58.334 14 77.001c14 28.667 39.333 45.334 76 50.001c-36.667 5.33301 -62 22.333 -76 51c-9.33301 18.667 -14 44.667 -14 78v127c0 33.333 -5 56 -15 68
c-12 14 -31 21 -57 21h-10v90h56c17.333 0 33.5 -1.66699 48.5 -5s30 -10.833 45 -22.5s25.167 -28.167 30.5 -49.5c3.33301 -12.667 5 -31.667 5 -57v-146c0 -18 0.833008 -31.833 2.5 -41.5s6.5 -20.167 14.5 -31.5s17.333 -20.166 28 -26.499s23.334 -9.5 38.001 -9.5
v-90z" />
    <glyph glyph-name="asciitilde" unicode="~" horiz-adv-x="600" 
d="M552 348c-21.333 -39.333 -41.665 -67.668 -60.998 -85.001c-24 -21.333 -51.667 -32 -83 -32c-20.667 0 -44.334 4.66699 -71.001 14c-18 6 -38.5 14.833 -61.5 26.5s-38.667 18.834 -47 21.501s-18.166 4 -29.499 4c-18 0 -34.5 -7.83301 -49.5 -23.5
s-27.5 -35.167 -37.5 -58.5l-64 74c19.333 41.333 42.166 72.333 68.499 93s53.166 31 80.499 31c29.333 0 76 -15 140 -45c12 -6 24 -11 36 -15s23.333 -6 34 -6c14 0 26.667 4.66699 38 14c14 11.333 28.333 31.333 43 60z" />
    <glyph glyph-name="c128" horiz-adv-x="700" 
d="M670 227c0 -67.333 -22.668 -122 -68.001 -164s-104.333 -63 -177 -63h-50v133h51c32 0 57.833 8.5 77.5 25.5s29.5 39.833 29.5 68.5c0 29.333 -9.83301 52.5 -29.5 69.5s-45.5 25.5 -77.5 25.5h-144v-322h-137v607h-137v133h491v-133h-217v-152h143
c84.667 0 148.334 -24 191.001 -72c36 -40.667 54 -92.667 54 -156z" />
    <glyph glyph-name="c128" unicode="&#x402;" horiz-adv-x="700" 
d="M670 227c0 -67.333 -22.668 -122 -68.001 -164s-104.333 -63 -177 -63h-50v133h51c32 0 57.833 8.5 77.5 25.5s29.5 39.833 29.5 68.5c0 29.333 -9.83301 52.5 -29.5 69.5s-45.5 25.5 -77.5 25.5h-144v-322h-137v607h-137v133h491v-133h-217v-152h143
c84.667 0 148.334 -24 191.001 -72c36 -40.667 54 -92.667 54 -156z" />
    <glyph glyph-name="c129" horiz-adv-x="440" 
d="M412 870l-242 -90l-37 99l242 101zM438 607h-233v-607h-137v740h370v-133z" />
    <glyph glyph-name="c129" unicode="&#x403;" horiz-adv-x="440" 
d="M412 870l-242 -90l-37 99l242 101zM438 607h-233v-607h-137v740h370v-133z" />
    <glyph glyph-name="c141" horiz-adv-x="620" 
d="M492 870l-242 -90l-37 99l242 101zM599 0h-164l-230 324v-324h-137v740h137v-321l230 321h164l-279 -364z" />
    <glyph glyph-name="c141" unicode="&#x40c;" horiz-adv-x="620" 
d="M492 870l-242 -90l-37 99l242 101zM599 0h-164l-230 324v-324h-137v740h137v-321l230 321h164l-279 -364z" />
    <glyph glyph-name="c142" horiz-adv-x="720" 
d="M664 0l-137.001 -0.000976562v218c0 20 -0.666992 33.333 -2 40c-3.33301 18.667 -11.333 33.667 -24 45c-10 8.66699 -22.5 14.667 -37.5 18s-30.167 5 -45.5 5h-136v-326h-137v607h-137v133h491v-133h-217v-148h135c38 0 68.667 -2.33301 92 -7
c34.667 -7.33301 64 -20.666 88 -39.999c26.667 -22 45.334 -50.667 56.001 -86c7.33301 -24.667 11 -54.667 11 -90v-236z" />
    <glyph glyph-name="c142" unicode="&#x40b;" horiz-adv-x="720" 
d="M664 0l-137.001 -0.000976562v218c0 20 -0.666992 33.333 -2 40c-3.33301 18.667 -11.333 33.667 -24 45c-10 8.66699 -22.5 14.667 -37.5 18s-30.167 5 -45.5 5h-136v-326h-137v607h-137v133h491v-133h-217v-148h135c38 0 68.667 -2.33301 92 -7
c34.667 -7.33301 64 -20.666 88 -39.999c26.667 -22 45.334 -50.667 56.001 -86c7.33301 -24.667 11 -54.667 11 -90v-236z" />
    <glyph glyph-name="c143" horiz-adv-x="679" 
d="M611 0h-203v-185h-137v185h-203v740h137v-607h269v607h137v-740z" />
    <glyph glyph-name="c143" unicode="&#x40f;" horiz-adv-x="679" 
d="M611 0h-203v-185h-137v185h-203v740h137v-607h269v607h137v-740z" />
    <glyph glyph-name="c144" horiz-adv-x="600" 
d="M546 48c0 -39.333 -4.66602 -72.333 -13.999 -99s-26 -50.5 -50 -71.5s-52 -36.667 -84 -47s-65.333 -15.5 -100 -15.5v126c28.667 0 51.667 5 69 15c30.667 17.333 46 48 46 92v170c0 41.333 -5.66699 74 -17 98c-18 38.667 -49.333 58 -94 58
c-47.333 0 -80 -19.333 -98 -58c-11.333 -24 -17 -58 -17 -102v-214h-133v595h-100v114h100v31h133v-31h267v-114h-267v-155c18.667 22 41 37.5 67 46.5s51.333 13.5 76 13.5c65.333 0 117.666 -22 156.999 -66s59 -104.667 59 -182v-204z" />
    <glyph glyph-name="c144" unicode="&#x452;" horiz-adv-x="600" 
d="M546 48c0 -39.333 -4.66602 -72.333 -13.999 -99s-26 -50.5 -50 -71.5s-52 -36.667 -84 -47s-65.333 -15.5 -100 -15.5v126c28.667 0 51.667 5 69 15c30.667 17.333 46 48 46 92v170c0 41.333 -5.66699 74 -17 98c-18 38.667 -49.333 58 -94 58
c-47.333 0 -80 -19.333 -98 -58c-11.333 -24 -17 -58 -17 -102v-214h-133v595h-100v114h100v31h133v-31h267v-114h-267v-155c18.667 22 41 37.5 67 46.5s51.333 13.5 76 13.5c65.333 0 117.666 -22 156.999 -66s59 -104.667 59 -182v-204z" />
    <glyph glyph-name="c157" horiz-adv-x="580" 
d="M473 738l-229 -125l-50 92l225 135zM555 0h-168l-200 266v-266h-133v554h133v-254l198 254h158l-221 -260z" />
    <glyph glyph-name="c157" unicode="&#x45c;" horiz-adv-x="580" 
d="M473 738l-229 -125l-50 92l225 135zM555 0h-168l-200 266v-266h-133v554h133v-254l198 254h158l-221 -260z" />
    <glyph glyph-name="c158" horiz-adv-x="600" 
d="M546 0h-132.999v222c0 56 -12 96.667 -36 122c-18.667 20 -43.667 30 -75 30c-47.333 0 -80 -19 -98 -57c-11.333 -23.333 -17 -55 -17 -95v-222h-133v595h-100v114h100v31h133v-31h267v-114h-267v-155c18.667 22 41 37.5 67 46.5s51.333 13.5 76 13.5
c65.333 0 117.666 -22 156.999 -66s59 -104.667 59 -182v-252z" />
    <glyph glyph-name="c158" unicode="&#x45b;" horiz-adv-x="600" 
d="M546 0h-132.999v222c0 56 -12 96.667 -36 122c-18.667 20 -43.667 30 -75 30c-47.333 0 -80 -19 -98 -57c-11.333 -23.333 -17 -55 -17 -95v-222h-133v595h-100v114h100v31h133v-31h267v-114h-267v-155c18.667 22 41 37.5 67 46.5s51.333 13.5 76 13.5
c65.333 0 117.666 -22 156.999 -66s59 -104.667 59 -182v-252z" />
    <glyph glyph-name="nonbreakingspace" unicode="&#xa0;" horiz-adv-x="500" 
 />
    <glyph glyph-name="exclamdown" unicode="&#xa1;" horiz-adv-x="700" 
d="M550 920c-6.66699 -41.333 -26 -75 -58 -101s-72.667 -39 -122 -39c-48.667 0 -89.167 13 -121.5 39s-51.833 59.667 -58.5 101h115c2.66699 -16.667 10 -29.167 22 -37.5s26.333 -12.5 43 -12.5s31 4 43 12s19.333 20.667 22 38h115zM691 740l-335 -740h-150l87 188
l-284 552h166l195 -394l171 394h150z" />
    <glyph glyph-name="exclamdown" unicode="&#x40e;" horiz-adv-x="700" 
d="M550 920c-6.66699 -41.333 -26 -75 -58 -101s-72.667 -39 -122 -39c-48.667 0 -89.167 13 -121.5 39s-51.833 59.667 -58.5 101h115c2.66699 -16.667 10 -29.167 22 -37.5s26.333 -12.5 43 -12.5s31 4 43 12s19.333 20.667 22 38h115zM691 740l-335 -740h-150l87 188
l-284 552h166l195 -394l171 394h150z" />
    <glyph glyph-name="cent" unicode="&#xa2;" horiz-adv-x="580" 
d="M460 756c-5.33301 -39.333 -23.166 -71.833 -53.499 -97.5s-67.5 -38.5 -111.5 -38.5c-44.667 0 -81.834 12.833 -111.501 38.5s-47.5 58.167 -53.5 97.5h100c4 -14.667 12 -26 24 -34s25.667 -12 41 -12c35.333 0 57 15.333 65 46h100zM568 554l-318 -739h-143l102 237
l-203 502h151l127 -355l133 355h151z" />
    <glyph glyph-name="cent" unicode="&#x45e;" horiz-adv-x="580" 
d="M460 756c-5.33301 -39.333 -23.166 -71.833 -53.499 -97.5s-67.5 -38.5 -111.5 -38.5c-44.667 0 -81.834 12.833 -111.501 38.5s-47.5 58.167 -53.5 97.5h100c4 -14.667 12 -26 24 -34s25.667 -12 41 -12c35.333 0 57 15.333 65 46h100zM568 554l-318 -739h-143l102 237
l-203 502h151l127 -355l133 355h151z" />
    <glyph glyph-name="sterling" unicode="&#xa3;" horiz-adv-x="480" 
d="M412 218c0 -76 -16 -133.666 -48 -172.999c-34 -42 -84.333 -63 -151 -63c-56 0 -104.333 18 -145 54s-61 80.667 -61 134h137c4 -36.667 25 -55 63 -55c29.333 0 49 11 59 33c6 13.333 9 33.666 9 60.999v531h137v-522z" />
    <glyph glyph-name="sterling" unicode="&#x408;" horiz-adv-x="480" 
d="M412 218c0 -76 -16 -133.666 -48 -172.999c-34 -42 -84.333 -63 -151 -63c-56 0 -104.333 18 -145 54s-61 80.667 -61 134h137c4 -36.667 25 -55 63 -55c29.333 0 49 11 59 33c6 13.333 9 33.666 9 60.999v531h137v-522z" />
    <glyph glyph-name="currency" unicode="&#xa4;" 
d="M534 227l-77.001 -78.998l-44 44c-20 -14 -41.167 -24 -63.5 -30s-44.166 -9 -65.499 -9c-30.667 0 -56.334 3.33301 -77.001 10s-39.667 16.334 -57 29.001l-44 -44l-79 79l44 44c-14 23.333 -23.667 45.5 -29 66.5s-8 41.5 -8 61.5c0 23.333 2.66699 45.666 8 66.999
s15 42.666 29 63.999l-44 43l79 80l44 -44c24 15.333 46.333 25.5 67 30.5s41.334 7.5 62.001 7.5c30 0 55.333 -3.33301 76 -10s40 -16 58 -28l44 44l77 -80l-44 -43c10 -14.667 18 -30.334 24 -47.001c9.33301 -26 14 -53.667 14 -83c0 -20 -2 -38.667 -6 -56
c-6 -24.667 -16.667 -49 -32 -73zM403.999 400.002c0 33.333 -11.833 62.166 -35.5 86.499s-52.834 36.5 -87.501 36.5c-35.333 0 -64.666 -12 -87.999 -36s-35 -53 -35 -87c0 -33.333 11.833 -62.166 35.5 -86.499s52.834 -36.5 87.501 -36.5c35.333 0 64.666 12 87.999 36
s35 53 35 87z" />
    <glyph glyph-name="yen" unicode="&#xa5;" horiz-adv-x="460" 
d="M458 607h-253v-607h-137v740h253v130h137v-263z" />
    <glyph glyph-name="yen" unicode="&#x490;" horiz-adv-x="460" 
d="M458 607h-253v-607h-137v740h253v130h137v-263z" />
    <glyph glyph-name="brokenbar" unicode="&#xa6;" horiz-adv-x="600" 
d="M362 444h-119v296h119v-296zM362 0h-119v296h119v-296z" />
    <glyph glyph-name="section" unicode="&#xa7;" 
d="M529 290c0 -23.333 -4.66406 -44.665 -13.9971 -63.998c-12 -26 -33 -51.333 -63 -76c18 -15.333 30.667 -34 38 -56s11 -44.333 11 -67c0 -50.667 -19.5 -93.834 -58.5 -129.501s-90.833 -53.5 -155.5 -53.5c-64 0 -117.333 18 -160 54c-46 38.667 -69 91 -69 157h132
c0 -28 8.5 -50.833 25.5 -68.5s39.5 -26.5 67.5 -26.5c28.667 0 50.5 6.83301 65.5 20.5s22.5 29.167 22.5 46.5c0 18.667 -7.33301 34.667 -22 48c-8 7.33301 -21.667 16 -41 26l-158 83c-36.667 18.667 -63.334 39.334 -80.001 62.001c-20 26.667 -30 60.334 -30 101.001
c0 23.333 3.66699 45 11 65c12.667 34.667 36 61.667 70 81c-10.667 14 -18.167 29 -22.5 45s-6.5 32.333 -6.5 49c0 43.333 14.667 80 44 110c36 37.333 88.667 56 158 56c62 0 111.667 -17.667 149 -53s56 -80.333 56 -135h-125c0 23.333 -7.83301 41.166 -23.5 53.499
s-34.834 18.5 -57.501 18.5c-24.667 0 -43.334 -6.33301 -56.001 -19c-10 -10 -15 -22 -15 -36c0 -16 6.66699 -30.333 20 -43c10.667 -10.667 26.667 -21.334 48 -32.001l143 -72c24 -12 43 -25.667 57 -41c26 -28.667 39 -63.334 39 -104.001zM405.003 275.001
c0 16 -5.99902 29.667 -17.999 41c-9.33301 8.66699 -25.333 18.667 -48 30l-147 76c-8.66699 -8 -15.5 -17.167 -20.5 -27.5s-7.5 -22.5 -7.5 -36.5c0 -13.333 5.16699 -26 15.5 -38s24.166 -22.333 41.499 -31l152 -78c9.33301 10 17 20.333 23 31s9 21.667 9 33z" />
    <glyph glyph-name="dieresis" unicode="&#xa8;" horiz-adv-x="520" 
d="M438 794h-137v126h137v-126zM232 794h-137v126h137v-126zM465 0h-397v740h397v-133h-260v-171h249v-133h-249v-170h260v-133z" />
    <glyph glyph-name="dieresis" unicode="&#x401;" horiz-adv-x="520" 
d="M438 794h-137v126h137v-126zM232 794h-137v126h137v-126zM465 0h-397v740h397v-133h-260v-171h249v-133h-249v-170h260v-133z" />
    <glyph glyph-name="copyright" unicode="&#xa9;" horiz-adv-x="740" 
d="M756 368c0 -106.667 -37.667 -197.667 -113 -273s-166 -113 -272 -113c-106.667 0 -197.667 37.667 -273 113s-113 166.333 -113 273s37.5 197.5 112.5 272.5s166.167 112.5 273.5 112.5c106 0 196.667 -37.667 272 -113s113 -166 113 -272zM684 368
c0 86 -30.667 159.667 -92 221s-135 92 -221 92c-86.667 0 -160.667 -30.667 -222 -92s-92 -135 -92 -221c0 -86.667 30.333 -160.667 91 -222s135 -92 223 -92c86 0 159.667 30.333 221 91s92 135 92 223zM577 463l-89.9971 0.00195312c-24.667 36 -61.667 54 -111 54
c-40 0 -73.167 -14.167 -99.5 -42.5s-39.5 -62.5 -39.5 -102.5c0 -40.667 13.333 -75.334 40 -104.001s59.667 -43 99 -43c19.333 0 37.666 3.33301 54.999 10c21.333 8.66699 38.666 22 51.999 40h92c-18.667 -38.667 -44.834 -69.334 -78.501 -92.001
s-73.5 -34 -119.5 -34c-70 0 -125.333 24.333 -166 73c-36 42.667 -54 92.667 -54 150c0 62 21 114.333 63 157s93.667 64 155 64c46 0 86.667 -11.5 122 -34.5s62 -54.833 80 -95.5z" />
    <glyph glyph-name="ordfeminine" unicode="&#xaa;" horiz-adv-x="780" 
d="M760 528l-155.999 0.00292969c-22 29.333 -49 52 -81 68s-69.667 24 -113 24c-60.667 0 -112.334 -18.667 -155.001 -56c-37.333 -32.667 -63.333 -75.667 -78 -129h374v-130h-375c13.333 -58 43 -104.667 89 -140c43.333 -33.333 92 -50 146 -50
c38.667 0 74 7.16699 106 21.5s58.667 35.833 80 64.5h159c-31.333 -66.667 -76.5 -119.834 -135.5 -159.501s-128.167 -59.5 -207.5 -59.5c-119.333 0 -215.333 43 -288 129c-63.333 75.333 -95 161.666 -95 258.999c0 96.667 31.333 182 94 256c72 84.667 167 127 285 127
c80.667 0 151.667 -19.833 213 -59.5s107.333 -94.834 138 -165.501z" />
    <glyph glyph-name="ordfeminine" unicode="&#x404;" horiz-adv-x="780" 
d="M760 528l-155.999 0.00292969c-22 29.333 -49 52 -81 68s-69.667 24 -113 24c-60.667 0 -112.334 -18.667 -155.001 -56c-37.333 -32.667 -63.333 -75.667 -78 -129h374v-130h-375c13.333 -58 43 -104.667 89 -140c43.333 -33.333 92 -50 146 -50
c38.667 0 74 7.16699 106 21.5s58.667 35.833 80 64.5h159c-31.333 -66.667 -76.5 -119.834 -135.5 -159.501s-128.167 -59.5 -207.5 -59.5c-119.333 0 -215.333 43 -288 129c-63.333 75.333 -95 161.666 -95 258.999c0 96.667 31.333 182 94 256c72 84.667 167 127 285 127
c80.667 0 151.667 -19.833 213 -59.5s107.333 -94.834 138 -165.501z" />
    <glyph glyph-name="guillemotleft" unicode="&#xab;" horiz-adv-x="460" 
d="M388 136l-139 131v101l139 130v-123l-67 -57l67 -59v-123zM175 136l-139 131v101l139 130v-123l-67 -57l67 -59v-123z" />
    <glyph glyph-name="logicalnot" unicode="&#xac;" horiz-adv-x="600" 
d="M552 182h-118v173h-386v118h504v-291z" />
    <glyph glyph-name="minus" unicode="&#xad;" horiz-adv-x="420" 
d="M349 259h-278v118h278v-118z" />
    <glyph glyph-name="registered" unicode="&#xae;" horiz-adv-x="740" 
d="M756 368c0 -106.667 -37.667 -197.667 -113 -273s-166 -113 -272 -113c-106.667 0 -197.667 37.667 -273 113s-113 166.333 -113 273s37.5 197.5 112.5 272.5s166.167 112.5 273.5 112.5c106 0 196.667 -37.667 272 -113s113 -166 113 -272zM684 368
c0 86 -30.667 159.667 -92 221s-135 92 -221 92c-86.667 0 -160.667 -30.667 -222 -92s-92 -135 -92 -221c0 -86.667 30.333 -160.667 91 -222s135 -92 223 -92c86 0 159.667 30.333 221 91s92 135 92 223zM528 152h-98.001l-107 158l-1 -158h-80v427h125
c62.667 0 107.334 -17 134.001 -51c18 -22.667 27 -50.667 27 -84c0 -35.333 -10.833 -66.5 -32.5 -93.5s-49.5 -40.5 -83.5 -40.5zM447.999 439c0 17.333 -4.66699 31.333 -14 42c-13.333 14.667 -35 22 -65 22h-47v-127h47c30 0 51.333 7 64 21c10 11.333 15 25.333 15 42
z" />
    <glyph glyph-name="macron" unicode="&#xaf;" horiz-adv-x="340" 
d="M332 794h-137v126h137v-126zM146 794h-137v126h137v-126zM239 0h-137v740h137v-740z" />
    <glyph glyph-name="macron" unicode="&#x407;" horiz-adv-x="340" 
d="M332 794h-137v126h137v-126zM146 794h-137v126h137v-126zM239 0h-137v740h137v-740z" />
    <glyph glyph-name="degree" unicode="&#xb0;" horiz-adv-x="400" 
d="M350 590c0 -41.333 -14.667 -76.666 -44 -105.999s-64.666 -44 -105.999 -44s-76.666 14.667 -105.999 44s-44 64.666 -44 105.999s14.667 76.666 44 105.999s64.666 44 105.999 44s76.666 -14.667 105.999 -44s44 -64.666 44 -105.999zM290 590
c0 24.667 -8.83496 45.832 -26.502 63.499s-39.167 26.5 -64.5 26.5c-24.667 0 -45.667 -8.66699 -63 -26s-26 -38.666 -26 -63.999c0 -24.667 8.83301 -45.834 26.5 -63.501s38.834 -26.5 63.501 -26.5s45.834 8.83301 63.501 26.5s26.5 38.834 26.5 63.501z" />
    <glyph glyph-name="plusminus" unicode="&#xb1;" horiz-adv-x="600" 
d="M552 317h-194v-143h-116v143h-194v116h194v137h116v-137h194v-116zM552 0h-504v116h504v-116z" />
    <glyph glyph-name="twosuperior" unicode="&#xb2;" horiz-adv-x="280" 
d="M208 794h-137v126h137v-126zM208 0h-137v740h137v-740z" />
    <glyph glyph-name="twosuperior" unicode="&#x406;" horiz-adv-x="280" 
d="M208 794h-137v126h137v-126zM208 0h-137v740h137v-740z" />
    <glyph glyph-name="threesuperior" unicode="&#xb3;" horiz-adv-x="240" 
d="M187 618h-133v122h133v-122zM187 0h-133v554h133v-554z" />
    <glyph glyph-name="threesuperior" unicode="&#x456;" horiz-adv-x="240" 
d="M187 618h-133v122h133v-122zM187 0h-133v554h133v-554z" />
    <glyph glyph-name="acute" unicode="&#xb4;" horiz-adv-x="400" 
d="M388 436h-201v-436h-133v554h204v116h130v-234z" />
    <glyph glyph-name="acute" unicode="&#x491;" horiz-adv-x="400" 
d="M388 436h-201v-436h-133v554h204v116h130v-234z" />
    <glyph glyph-name="mu" unicode="&#xb5;" horiz-adv-x="576" 
d="M528 0h-122.001v59c-14.667 -24 -33.334 -42.833 -56.001 -56.5s-48 -20.5 -76 -20.5c-19.333 0 -36.666 3 -51.999 9s-29 13.333 -41 22v-198h-133v739h133v-276c0 -48 4.66699 -84 14 -108c16 -41.333 46.667 -62 92 -62c44.667 0 75.334 20.333 92.001 61
c10.667 26 16 62.333 16 109v276h133v-554z" />
    <glyph glyph-name="paragraph" unicode="&#xb6;" horiz-adv-x="600" 
d="M527 -128h-103.001v760h-82v-760h-100v458c-58 0 -106.667 19 -146 57s-59 87 -59 147c0 61.333 20.333 111 61 149s94.334 57 161.001 57h268v-868z" />
    <glyph glyph-name="periodcentered" unicode="&#xb7;" horiz-adv-x="280" 
d="M205 251h-133v133h133v-133z" />
    <glyph glyph-name="periodcentered" unicode="&#x2219;" horiz-adv-x="280" 
d="M205 251h-133v133h133v-133z" />
    <glyph glyph-name="cedilla" unicode="&#xb8;" horiz-adv-x="640" 
d="M497 620h-133v120h133v-120zM287 620h-133v120h133v-120zM610 277l0.000976562 -15c0 -14 -1 -28.667 -3 -44h-434c8.66699 -33.333 26.167 -60 52.5 -80s57.166 -30 92.499 -30c23.333 0 45 3.66699 65 11c24 9.33301 43.667 23 59 41h150
c-24.667 -58 -61.167 -102.167 -109.5 -132.5s-101.5 -45.5 -159.5 -45.5c-92 0 -165.667 32.667 -221 98c-48 56.667 -72 121 -72 193c0 73.333 24 139 72 197c56 68 130.333 102 223 102c84 0 152.5 -28.167 205.5 -84.5s79.5 -126.5 79.5 -210.5zM471.001 336
c-9.33301 34.667 -27.332 61.667 -53.999 81s-57.334 29 -92.001 29c-36 0 -67.833 -10 -95.5 -30s-47.167 -46.667 -58.5 -80h300z" />
    <glyph glyph-name="cedilla" unicode="&#x451;" horiz-adv-x="640" 
d="M497 620h-133v120h133v-120zM287 620h-133v120h133v-120zM610 277l0.000976562 -15c0 -14 -1 -28.667 -3 -44h-434c8.66699 -33.333 26.167 -60 52.5 -80s57.166 -30 92.499 -30c23.333 0 45 3.66699 65 11c24 9.33301 43.667 23 59 41h150
c-24.667 -58 -61.167 -102.167 -109.5 -132.5s-101.5 -45.5 -159.5 -45.5c-92 0 -165.667 32.667 -221 98c-48 56.667 -72 121 -72 193c0 73.333 24 139 72 197c56 68 130.333 102 223 102c84 0 152.5 -28.167 205.5 -84.5s79.5 -126.5 79.5 -210.5zM471.001 336
c-9.33301 34.667 -27.332 61.667 -53.999 81s-57.334 29 -92.001 29c-36 0 -67.833 -10 -95.5 -30s-47.167 -46.667 -58.5 -80h300z" />
    <glyph glyph-name="onesuperior" unicode="&#xb9;" horiz-adv-x="1100" 
d="M1078 560c0 -50 -17.501 -92.499 -52.501 -127.499s-77.167 -52.5 -126.5 -52.5s-91.666 17.667 -126.999 53s-53 77.666 -53 126.999c0 50 17.5 92.5 52.5 127.5s77.5 52.5 127.5 52.5c49.333 0 91.5 -17.5 126.5 -52.5s52.5 -77.5 52.5 -127.5zM1063 206.001h-330v120
h330v-120zM668.999 0.000976562h-137l-325 500v-500h-137v740h137l325 -500v500h137v-740zM977.999 560.001c0 22 -7.83301 40.833 -23.5 56.5s-34.167 23.5 -55.5 23.5c-22 0 -40.833 -7.83301 -56.5 -23.5s-23.5 -34.5 -23.5 -56.5c0 -21.333 7.66699 -40 23 -56
s34 -24 56 -24s40.833 7.83301 56.5 23.5s23.5 34.5 23.5 56.5z" />
    <glyph glyph-name="onesuperior" unicode="&#x2116;" horiz-adv-x="1100" 
d="M1078 560c0 -50 -17.501 -92.499 -52.501 -127.499s-77.167 -52.5 -126.5 -52.5s-91.666 17.667 -126.999 53s-53 77.666 -53 126.999c0 50 17.5 92.5 52.5 127.5s77.5 52.5 127.5 52.5c49.333 0 91.5 -17.5 126.5 -52.5s52.5 -77.5 52.5 -127.5zM1063 206.001h-330v120
h330v-120zM668.999 0.000976562h-137l-325 500v-500h-137v740h137l325 -500v500h137v-740zM977.999 560.001c0 22 -7.83301 40.833 -23.5 56.5s-34.167 23.5 -55.5 23.5c-22 0 -40.833 -7.83301 -56.5 -23.5s-23.5 -34.5 -23.5 -56.5c0 -21.333 7.66699 -40 23 -56
s34 -24 56 -24s40.833 7.83301 56.5 23.5s23.5 34.5 23.5 56.5z" />
    <glyph glyph-name="ordmasculine" unicode="&#xba;" horiz-adv-x="640" 
d="M610 180c-20.667 -60 -55.167 -108 -103.5 -144s-105.5 -54 -171.5 -54c-95.333 0 -171.666 32.333 -228.999 97c-50.667 56.667 -76 124 -76 202c0 74.667 24.333 139.667 73 195c56 64 131.667 96 227 96c69.333 0 128.666 -18.333 177.999 -55
s83.333 -85.667 102 -147h-150c-14.667 31.333 -38 53 -70 65c-19.333 7.33301 -40 11 -62 11c-39.333 0 -73 -10.333 -101 -31s-46 -47 -54 -79h249v-118h-249c11.333 -35.333 31.5 -62.5 60.5 -81.5s61.167 -28.5 96.5 -28.5s65.333 9 90 27c16.667 12 30 27 40 45h150z
" />
    <glyph glyph-name="ordmasculine" unicode="&#x454;" horiz-adv-x="640" 
d="M610 180c-20.667 -60 -55.167 -108 -103.5 -144s-105.5 -54 -171.5 -54c-95.333 0 -171.666 32.333 -228.999 97c-50.667 56.667 -76 124 -76 202c0 74.667 24.333 139.667 73 195c56 64 131.667 96 227 96c69.333 0 128.666 -18.333 177.999 -55
s83.333 -85.667 102 -147h-150c-14.667 31.333 -38 53 -70 65c-19.333 7.33301 -40 11 -62 11c-39.333 0 -73 -10.333 -101 -31s-46 -47 -54 -79h249v-118h-249c11.333 -35.333 31.5 -62.5 60.5 -81.5s61.167 -28.5 96.5 -28.5s65.333 9 90 27c16.667 12 30 27 40 45h150z
" />
    <glyph glyph-name="guillemotright" unicode="&#xbb;" horiz-adv-x="460" 
d="M424 267l-139 -131v123l68 59l-68 57v123l139 -130v-101zM211 267l-139 -131v123l68 59l-68 57v123l139 -130v-101z" />
    <glyph glyph-name="onequarter" unicode="&#xbc;" horiz-adv-x="260" 
d="M206 618h-133v122h133v-122zM206 28c0 -86 -26.334 -146.667 -79.001 -182c-31.333 -20.667 -67.666 -31 -108.999 -31v129c24 -3.33301 40 5.66699 48 27c4.66699 12 7 31 7 57v526h133v-526z" />
    <glyph glyph-name="onequarter" unicode="&#x458;" horiz-adv-x="260" 
d="M206 618h-133v122h133v-122zM206 28c0 -86 -26.334 -146.667 -79.001 -182c-31.333 -20.667 -67.666 -31 -108.999 -31v129c24 -3.33301 40 5.66699 48 27c4.66699 12 7 31 7 57v526h133v-526z" />
    <glyph glyph-name="onehalf" unicode="&#xbd;" horiz-adv-x="520" 
d="M493 216c0 -66 -22.499 -121.503 -67.499 -166.503s-102.5 -67.5 -172.5 -67.5c-61.333 0 -115 18.667 -161 56c-52 42.667 -78 99.334 -78 170.001h143c0 -28 9.66699 -50.5 29 -67.5s42.666 -25.5 69.999 -25.5c30 0 54.167 8.83301 72.5 26.5s27.5 39.834 27.5 66.501
c0 50 -29.667 86.667 -89 110l-91 33c-49.333 20.667 -85.666 51.334 -108.999 92.001c-17.333 30.667 -26 64 -26 100c0 54 18.333 101 55 141c42 46 97 69 165 69c66.667 0 120 -22 160 -66c36 -40 54 -88 54 -144h-141c0 20.667 -6 38 -18 52
c-14 16.667 -33.667 25 -59 25c-26 0 -45.667 -7.5 -59 -22.5s-20 -33.5 -20 -55.5c0 -37.333 25 -65 75 -83l90 -31c35.333 -14 64.666 -32.667 87.999 -56c41.333 -40.667 62 -92.667 62 -156z" />
    <glyph glyph-name="onehalf" unicode="&#x405;" horiz-adv-x="520" 
d="M493 216c0 -66 -22.499 -121.503 -67.499 -166.503s-102.5 -67.5 -172.5 -67.5c-61.333 0 -115 18.667 -161 56c-52 42.667 -78 99.334 -78 170.001h143c0 -28 9.66699 -50.5 29 -67.5s42.666 -25.5 69.999 -25.5c30 0 54.167 8.83301 72.5 26.5s27.5 39.834 27.5 66.501
c0 50 -29.667 86.667 -89 110l-91 33c-49.333 20.667 -85.666 51.334 -108.999 92.001c-17.333 30.667 -26 64 -26 100c0 54 18.333 101 55 141c42 46 97 69 165 69c66.667 0 120 -22 160 -66c36 -40 54 -88 54 -144h-141c0 20.667 -6 38 -18 52
c-14 16.667 -33.667 25 -59 25c-26 0 -45.667 -7.5 -59 -22.5s-20 -33.5 -20 -55.5c0 -37.333 25 -65 75 -83l90 -31c35.333 -14 64.666 -32.667 87.999 -56c41.333 -40.667 62 -92.667 62 -156z" />
    <glyph glyph-name="threequarters" unicode="&#xbe;" horiz-adv-x="440" 
d="M420 173c0 -55.333 -18.333 -100.999 -55 -136.999s-85 -54 -145 -54c-61.333 0 -111 19.667 -149 59c-34.667 36 -52 80.333 -52 133h133c0 -20 7 -36 21 -48s31.333 -18 52 -18c18.667 0 33.667 5 45 15s17 24 17 42c0 15.333 -4.66699 27.666 -14 36.999
c-6.66699 6.66699 -18.667 13.334 -36 20.001c-9.33301 3.33301 -16.333 5.66602 -21 6.99902l-36 12c-39.333 12.667 -69.333 27.667 -90 45c-34 29.333 -51 67.666 -51 114.999c0 43.333 15 81.333 45 114c34.667 38 82 57 142 57c50.667 0 93.167 -15.833 127.5 -47.5
s51.5 -72.5 51.5 -122.5h-133c-1.33301 12 -6 22.333 -14 31s-20 13 -36 13c-16.667 0 -29.167 -4.5 -37.5 -13.5s-12.5 -20.167 -12.5 -33.5c0 -11.333 3.33301 -20.833 10 -28.5s16 -14.167 28 -19.5c6 -2.66699 13.333 -5.16699 22 -7.5l25 -6.5
c48 -11.333 83.667 -25.666 107 -42.999c37.333 -28 56 -68.333 56 -121z" />
    <glyph glyph-name="threequarters" unicode="&#x455;" horiz-adv-x="440" 
d="M420 173c0 -55.333 -18.333 -100.999 -55 -136.999s-85 -54 -145 -54c-61.333 0 -111 19.667 -149 59c-34.667 36 -52 80.333 -52 133h133c0 -20 7 -36 21 -48s31.333 -18 52 -18c18.667 0 33.667 5 45 15s17 24 17 42c0 15.333 -4.66699 27.666 -14 36.999
c-6.66699 6.66699 -18.667 13.334 -36 20.001c-9.33301 3.33301 -16.333 5.66602 -21 6.99902l-36 12c-39.333 12.667 -69.333 27.667 -90 45c-34 29.333 -51 67.666 -51 114.999c0 43.333 15 81.333 45 114c34.667 38 82 57 142 57c50.667 0 93.167 -15.833 127.5 -47.5
s51.5 -72.5 51.5 -122.5h-133c-1.33301 12 -6 22.333 -14 31s-20 13 -36 13c-16.667 0 -29.167 -4.5 -37.5 -13.5s-12.5 -20.167 -12.5 -33.5c0 -11.333 3.33301 -20.833 10 -28.5s16 -14.167 28 -19.5c6 -2.66699 13.333 -5.16699 22 -7.5l25 -6.5
c48 -11.333 83.667 -25.666 107 -42.999c37.333 -28 56 -68.333 56 -121z" />
    <glyph glyph-name="questiondown" unicode="&#xbf;" horiz-adv-x="340" 
d="M322 620h-133v120h133v-120zM152 620h-133v120h133v-120zM237 0h-133v554h133v-554z" />
    <glyph glyph-name="questiondown" unicode="&#x457;" horiz-adv-x="340" 
d="M322 620h-133v120h133v-120zM152 620h-133v120h133v-120zM237 0h-133v554h133v-554z" />
    <glyph glyph-name="Agrave" unicode="&#xc0;" horiz-adv-x="740" 
d="M733 0h-151l-76 191h-272l-76 -191h-151l308 740h110zM454 324l-84 216l-84 -216h168z" />
    <glyph glyph-name="Agrave" unicode="&#x410;" horiz-adv-x="740" 
d="M733 0h-151l-76 191h-272l-76 -191h-151l308 740h110zM454 324l-84 216l-84 -216h168z" />
    <glyph glyph-name="Aacute" unicode="&#xc1;" horiz-adv-x="600" 
d="M568 227c0 -67.333 -22.667 -122 -68 -164s-104.333 -63 -177 -63h-255v740h432v-133h-295v-152h118c78.667 0 139.167 -20.5 181.5 -61.5s63.5 -96.5 63.5 -166.5zM431 227c0 23.333 -7 43.333 -21 60c-19.333 23.333 -48 35 -86 35h-119v-189h119
c35.333 0 62 9.33301 80 28s27 40.667 27 66z" />
    <glyph glyph-name="Aacute" unicode="&#x411;" horiz-adv-x="600" 
d="M568 227c0 -67.333 -22.667 -122 -68 -164s-104.333 -63 -177 -63h-255v740h432v-133h-295v-152h118c78.667 0 139.167 -20.5 181.5 -61.5s63.5 -96.5 63.5 -166.5zM431 227c0 23.333 -7 43.333 -21 60c-19.333 23.333 -48 35 -86 35h-119v-189h119
c35.333 0 62 9.33301 80 28s27 40.667 27 66z" />
    <glyph glyph-name="Acircumflex" unicode="&#xc2;" horiz-adv-x="580" 
d="M548 225c0 -64 -19.332 -115 -57.999 -153c-49.333 -48 -128.333 -72 -237 -72h-185v740h178c81.333 0 143.666 -15.667 186.999 -47c46.667 -34 70 -83.333 70 -148c0 -39.333 -11 -73 -33 -101c-12.667 -16 -28.667 -29.333 -48 -40c40 -13.333 71 -36 93 -68
s33 -69 33 -111zM366.001 531c0 31.333 -12.333 53 -37 65c-15.333 7.33301 -35.333 11 -60 11h-64v-152h64c30 0 53.667 6.5 71 19.5s26 31.833 26 56.5zM411.001 226c0 23.333 -6 42.667 -18 58c-19.333 25.333 -52.333 38 -99 38h-89v-189h89c24 0 45.333 4 64 12
c35.333 15.333 53 42.333 53 81z" />
    <glyph glyph-name="Acircumflex" unicode="&#x412;" horiz-adv-x="580" 
d="M548 225c0 -64 -19.332 -115 -57.999 -153c-49.333 -48 -128.333 -72 -237 -72h-185v740h178c81.333 0 143.666 -15.667 186.999 -47c46.667 -34 70 -83.333 70 -148c0 -39.333 -11 -73 -33 -101c-12.667 -16 -28.667 -29.333 -48 -40c40 -13.333 71 -36 93 -68
s33 -69 33 -111zM366.001 531c0 31.333 -12.333 53 -37 65c-15.333 7.33301 -35.333 11 -60 11h-64v-152h64c30 0 53.667 6.5 71 19.5s26 31.833 26 56.5zM411.001 226c0 23.333 -6 42.667 -18 58c-19.333 25.333 -52.333 38 -99 38h-89v-189h89c24 0 45.333 4 64 12
c35.333 15.333 53 42.333 53 81z" />
    <glyph glyph-name="Atilde" unicode="&#xc3;" horiz-adv-x="440" 
d="M438 607h-233v-607h-137v740h370v-133z" />
    <glyph glyph-name="Atilde" unicode="&#x413;" horiz-adv-x="440" 
d="M438 607h-233v-607h-137v740h370v-133z" />
    <glyph glyph-name="Adieresis" unicode="&#xc4;" horiz-adv-x="820" 
d="M814 -140h-137v140h-534v-140h-137v273h71l274 607h120l274 -607h69v-273zM594 133l-183 417l-183 -417h366z" />
    <glyph glyph-name="Adieresis" unicode="&#x414;" horiz-adv-x="820" 
d="M814 -140h-137v140h-534v-140h-137v273h71l274 607h120l274 -607h69v-273zM594 133l-183 417l-183 -417h366z" />
    <glyph glyph-name="Aring" unicode="&#xc5;" horiz-adv-x="520" 
d="M465 0h-397v740h397v-133h-260v-171h249v-133h-249v-170h260v-133z" />
    <glyph glyph-name="Aring" unicode="&#x415;" horiz-adv-x="520" 
d="M465 0h-397v740h397v-133h-260v-171h249v-133h-249v-170h260v-133z" />
    <glyph glyph-name="AE" unicode="&#xc6;" horiz-adv-x="940" 
d="M918 0h-164l-216 324v-324h-137v324l-216 -324h-164l265 380l-259 360h158l216 -321v321h137v-321l216 321h158l-259 -356z" />
    <glyph glyph-name="AE" unicode="&#x416;" horiz-adv-x="940" 
d="M918 0h-164l-216 324v-324h-137v324l-216 -324h-164l265 380l-259 360h158l216 -321v321h137v-321l216 321h158l-259 -356z" />
    <glyph glyph-name="Ccedilla" unicode="&#xc7;" 
d="M530 207c0 -67.333 -23.5 -120.501 -70.5 -159.501s-108.5 -58.5 -184.5 -58.5c-72 0 -130.833 21.333 -176.5 64s-68.5 101 -68.5 175h137c0 -26 7 -48.333 21 -67c20 -26 50.667 -39 92 -39c38.667 0 67.167 9.16699 85.5 27.5s27.5 40.833 27.5 67.5
c0 28 -7.66699 50.667 -23 68c-18 20.667 -44.667 31 -80 31h-70v133h60c27.333 0 49 7.33301 65 22s24 35 24 61c0 28 -7.66699 49.667 -23 65s-36.666 23 -63.999 23c-26.667 0 -48.5 -6.33301 -65.5 -19s-25.5 -30.334 -25.5 -53.001h-137c0 58.667 19 106.667 57 144
c41.333 40.667 98.666 61 171.999 61c65.333 0 118.833 -18.5 160.5 -55.5s62.5 -86.167 62.5 -147.5c0 -36 -9.66699 -68.167 -29 -96.5s-45 -49.833 -77 -64.5c36.667 -9.33301 66.667 -28.666 90 -57.999c26.667 -33.333 40 -74.666 40 -123.999z" />
    <glyph glyph-name="Ccedilla" unicode="&#x417;" 
d="M530 207c0 -67.333 -23.5 -120.501 -70.5 -159.501s-108.5 -58.5 -184.5 -58.5c-72 0 -130.833 21.333 -176.5 64s-68.5 101 -68.5 175h137c0 -26 7 -48.333 21 -67c20 -26 50.667 -39 92 -39c38.667 0 67.167 9.16699 85.5 27.5s27.5 40.833 27.5 67.5
c0 28 -7.66699 50.667 -23 68c-18 20.667 -44.667 31 -80 31h-70v133h60c27.333 0 49 7.33301 65 22s24 35 24 61c0 28 -7.66699 49.667 -23 65s-36.666 23 -63.999 23c-26.667 0 -48.5 -6.33301 -65.5 -19s-25.5 -30.334 -25.5 -53.001h-137c0 58.667 19 106.667 57 144
c41.333 40.667 98.666 61 171.999 61c65.333 0 118.833 -18.5 160.5 -55.5s62.5 -86.167 62.5 -147.5c0 -36 -9.66699 -68.167 -29 -96.5s-45 -49.833 -77 -64.5c36.667 -9.33301 66.667 -28.666 90 -57.999c26.667 -33.333 40 -74.666 40 -123.999z" />
    <glyph glyph-name="Egrave" unicode="&#xc8;" horiz-adv-x="740" 
d="M672 0h-137v520l-330 -520h-137v740h137v-520l330 520h137v-740z" />
    <glyph glyph-name="Egrave" unicode="&#x418;" horiz-adv-x="740" 
d="M672 0h-137v520l-330 -520h-137v740h137v-520l330 520h137v-740z" />
    <glyph glyph-name="Eacute" unicode="&#xc9;" horiz-adv-x="740" 
d="M550 920c-6.66699 -41.333 -26 -75 -58 -101s-72.667 -39 -122 -39c-48.667 0 -89.167 13 -121.5 39s-51.833 59.667 -58.5 101h115c2.66699 -16.667 10 -29.167 22 -37.5s26.333 -12.5 43 -12.5s31 4 43 12s19.333 20.667 22 38h115zM672 0h-137v520l-330 -520h-137v740
h137v-520l330 520h137v-740z" />
    <glyph glyph-name="Eacute" unicode="&#x419;" horiz-adv-x="740" 
d="M550 920c-6.66699 -41.333 -26 -75 -58 -101s-72.667 -39 -122 -39c-48.667 0 -89.167 13 -121.5 39s-51.833 59.667 -58.5 101h115c2.66699 -16.667 10 -29.167 22 -37.5s26.333 -12.5 43 -12.5s31 4 43 12s19.333 20.667 22 38h115zM672 0h-137v520l-330 -520h-137v740
h137v-520l330 520h137v-740z" />
    <glyph glyph-name="Ecircumflex" unicode="&#xca;" horiz-adv-x="620" 
d="M599 0h-164l-230 324v-324h-137v740h137v-321l230 321h164l-279 -364z" />
    <glyph glyph-name="Ecircumflex" unicode="&#x41a;" horiz-adv-x="620" 
d="M599 0h-164l-230 324v-324h-137v740h137v-321l230 321h164l-279 -364z" />
    <glyph glyph-name="Edieresis" unicode="&#xcb;" horiz-adv-x="720" 
d="M713 0h-151l-202 550l-202 -550h-151l293 740h120z" />
    <glyph glyph-name="Edieresis" unicode="&#x41b;" horiz-adv-x="720" 
d="M713 0h-151l-202 550l-202 -550h-151l293 740h120z" />
    <glyph glyph-name="Igrave" unicode="&#xcc;" horiz-adv-x="920" 
d="M852 0h-137v554l-197 -554h-116l-197 554v-554h-137v740h186l206 -566l206 566h186v-740z" />
    <glyph glyph-name="Igrave" unicode="&#x41c;" horiz-adv-x="920" 
d="M852 0h-137v554l-197 -554h-116l-197 554v-554h-137v740h186l206 -566l206 566h186v-740z" />
    <glyph glyph-name="Iacute" unicode="&#xcd;" horiz-adv-x="680" 
d="M612 0h-137v310h-270v-310h-137v740h137v-297h270v297h137v-740z" />
    <glyph glyph-name="Iacute" unicode="&#x41d;" horiz-adv-x="680" 
d="M612 0h-137v310h-270v-310h-137v740h137v-297h270v297h137v-740z" />
    <glyph glyph-name="Icircumflex" unicode="&#xce;" horiz-adv-x="840" 
d="M810 366c0 -107.333 -37.5 -198.166 -112.5 -272.499s-167.5 -111.5 -277.5 -111.5s-202.5 37.167 -277.5 111.5s-112.5 165.166 -112.5 272.499c0 108 37.5 199.5 112.5 274.5s167.5 112.5 277.5 112.5s202.5 -37.5 277.5 -112.5s112.5 -166.5 112.5 -274.5zM673 369
c0 69.333 -24.168 128.5 -72.501 177.5s-108.5 73.5 -180.5 73.5c-72.667 0 -133 -24.333 -181 -73s-72 -108 -72 -178c0 -70.667 24.333 -130.667 73 -180s108.334 -74 179.001 -74c72.667 0 133.167 24.833 181.5 74.5s72.5 109.5 72.5 179.5z" />
    <glyph glyph-name="Icircumflex" unicode="&#x41e;" horiz-adv-x="840" 
d="M810 366c0 -107.333 -37.5 -198.166 -112.5 -272.499s-167.5 -111.5 -277.5 -111.5s-202.5 37.167 -277.5 111.5s-112.5 165.166 -112.5 272.499c0 108 37.5 199.5 112.5 274.5s167.5 112.5 277.5 112.5s202.5 -37.5 277.5 -112.5s112.5 -166.5 112.5 -274.5zM673 369
c0 69.333 -24.168 128.5 -72.501 177.5s-108.5 73.5 -180.5 73.5c-72.667 0 -133 -24.333 -181 -73s-72 -108 -72 -178c0 -70.667 24.333 -130.667 73 -180s108.334 -74 179.001 -74c72.667 0 133.167 24.833 181.5 74.5s72.5 109.5 72.5 179.5z" />
    <glyph glyph-name="Idieresis" unicode="&#xcf;" horiz-adv-x="680" 
d="M612 0h-137v607h-270v-607h-137v740h544v-740z" />
    <glyph glyph-name="Idieresis" unicode="&#x41f;" horiz-adv-x="680" 
d="M612 0h-137v607h-270v-607h-137v740h544v-740z" />
    <glyph glyph-name="Eth" unicode="&#xd0;" 
d="M540 509c0 -60 -17.001 -109.668 -51.001 -149.001c-46 -53.333 -117.333 -80 -214 -80h-70v-280h-137v740h207c102.667 0 176.334 -29.667 221.001 -89c29.333 -39.333 44 -86.666 44 -141.999zM402.999 509.999c0 39.333 -15.001 66.667 -45.001 82
c-19.333 10 -43.333 15 -72 15h-81v-194h81c40.667 0 70.334 8.33301 89.001 25s28 40.667 28 72z" />
    <glyph glyph-name="Eth" unicode="&#x420;" 
d="M540 509c0 -60 -17.001 -109.668 -51.001 -149.001c-46 -53.333 -117.333 -80 -214 -80h-70v-280h-137v740h207c102.667 0 176.334 -29.667 221.001 -89c29.333 -39.333 44 -86.666 44 -141.999zM402.999 509.999c0 39.333 -15.001 66.667 -45.001 82
c-19.333 10 -43.333 15 -72 15h-81v-194h81c40.667 0 70.334 8.33301 89.001 25s28 40.667 28 72z" />
    <glyph glyph-name="Ntilde" unicode="&#xd1;" horiz-adv-x="780" 
d="M760 528h-156.003c-22 28 -46.333 49.333 -73 64c-33.333 18.667 -71 28 -113 28c-72 0 -131.833 -24.833 -179.5 -74.5s-71.5 -108.167 -71.5 -175.5c0 -70.667 24.167 -130.834 72.5 -180.501s108.166 -74.5 179.499 -74.5c34.667 0 67.334 7 98.001 21
s57.334 35.667 80.001 65h159c-31.333 -67.333 -75.666 -120 -132.999 -158c-60.667 -40.667 -130 -61 -208 -61c-119.333 0 -215.666 43.333 -288.999 130c-64 76 -96 162 -96 258c0 94 31.667 178.333 95 253c74 86.667 171.333 130 292 130c77.333 0 146 -19.667 206 -59
s105.667 -94.666 137 -165.999z" />
    <glyph glyph-name="Ntilde" unicode="&#x421;" horiz-adv-x="780" 
d="M760 528h-156.003c-22 28 -46.333 49.333 -73 64c-33.333 18.667 -71 28 -113 28c-72 0 -131.833 -24.833 -179.5 -74.5s-71.5 -108.167 -71.5 -175.5c0 -70.667 24.167 -130.834 72.5 -180.501s108.166 -74.5 179.499 -74.5c34.667 0 67.334 7 98.001 21
s57.334 35.667 80.001 65h159c-31.333 -67.333 -75.666 -120 -132.999 -158c-60.667 -40.667 -130 -61 -208 -61c-119.333 0 -215.666 43.333 -288.999 130c-64 76 -96 162 -96 258c0 94 31.667 178.333 95 253c74 86.667 171.333 130 292 130c77.333 0 146 -19.667 206 -59
s105.667 -94.666 137 -165.999z" />
    <glyph glyph-name="Ograve" unicode="&#xd2;" horiz-adv-x="420" 
d="M416 607h-137v-607h-137v607h-137v133h411v-133z" />
    <glyph glyph-name="Ograve" unicode="&#x422;" horiz-adv-x="420" 
d="M416 607h-137v-607h-137v607h-137v133h411v-133z" />
    <glyph glyph-name="Oacute" unicode="&#xd3;" horiz-adv-x="700" 
d="M691 740l-335 -740h-150l87 188l-284 552h166l195 -394l171 394h150z" />
    <glyph glyph-name="Oacute" unicode="&#x423;" horiz-adv-x="700" 
d="M691 740l-335 -740h-150l87 188l-284 552h166l195 -394l171 394h150z" />
    <glyph glyph-name="Ocircumflex" unicode="&#xd4;" horiz-adv-x="860" 
d="M831 387c0 -92.667 -31.167 -169.167 -93.5 -229.5s-141.833 -90.5 -238.5 -90.5v-104h-137v104c-96.667 0 -176.167 30.167 -238.5 90.5s-93.5 136.833 -93.5 229.5s31.167 169.167 93.5 229.5s141.833 90.5 238.5 90.5v93h137v-93
c96.667 0 176.167 -30.167 238.5 -90.5s93.5 -136.833 93.5 -229.5zM694 387c0 52 -17.3311 95.667 -51.998 131c-36.667 37.333 -84.334 56 -143.001 56v-374c59.333 0 106.666 18 141.999 54s53 80.333 53 133zM362.002 200l-0.00195312 374
c-59.333 0 -106.666 -18 -141.999 -54s-53 -80.333 -53 -133c0 -52 17.833 -96.167 53.5 -132.5s82.834 -54.5 141.501 -54.5z" />
    <glyph glyph-name="Ocircumflex" unicode="&#x424;" horiz-adv-x="860" 
d="M831 387c0 -92.667 -31.167 -169.167 -93.5 -229.5s-141.833 -90.5 -238.5 -90.5v-104h-137v104c-96.667 0 -176.167 30.167 -238.5 90.5s-93.5 136.833 -93.5 229.5s31.167 169.167 93.5 229.5s141.833 90.5 238.5 90.5v93h137v-93
c96.667 0 176.167 -30.167 238.5 -90.5s93.5 -136.833 93.5 -229.5zM694 387c0 52 -17.3311 95.667 -51.998 131c-36.667 37.333 -84.334 56 -143.001 56v-374c59.333 0 106.666 18 141.999 54s53 80.333 53 133zM362.002 200l-0.00195312 374
c-59.333 0 -106.666 -18 -141.999 -54s-53 -80.333 -53 -133c0 -52 17.833 -96.167 53.5 -132.5s82.834 -54.5 141.501 -54.5z" />
    <glyph glyph-name="Otilde" unicode="&#xd5;" horiz-adv-x="680" 
d="M676 0h-160l-176 256l-175 -256h-160l255 370l-255 370h160l175 -257l176 257h160l-256 -370z" />
    <glyph glyph-name="Otilde" unicode="&#x425;" horiz-adv-x="680" 
d="M676 0h-160l-176 256l-175 -256h-160l255 370l-255 370h160l175 -257l176 257h160l-256 -370z" />
    <glyph glyph-name="Odieresis" unicode="&#xd6;" horiz-adv-x="700" 
d="M696 -140h-137v140h-491v740h137v-607h270v607h137v-607h84v-273z" />
    <glyph glyph-name="Odieresis" unicode="&#x426;" horiz-adv-x="700" 
d="M696 -140h-137v140h-491v740h137v-607h270v607h137v-607h84v-273z" />
    <glyph glyph-name="multiply" unicode="&#xd7;" horiz-adv-x="620" 
d="M552 0l-136.999 0.000976562v280h-126c-38 0 -68.667 2.33301 -92 7c-34.667 7.33301 -64 20.666 -88 39.999c-26.667 22 -45.334 50.667 -56.001 86c-7.33301 24.667 -11 54.667 -11 90v237h137v-219c0 -20 1.16699 -36.333 3.5 -49s9.83301 -24.667 22.5 -36
c10 -8.66699 22.5 -14.667 37.5 -18s30.167 -5 45.5 -5h127v327h137v-740z" />
    <glyph glyph-name="multiply" unicode="&#x427;" horiz-adv-x="620" 
d="M552 0l-136.999 0.000976562v280h-126c-38 0 -68.667 2.33301 -92 7c-34.667 7.33301 -64 20.666 -88 39.999c-26.667 22 -45.334 50.667 -56.001 86c-7.33301 24.667 -11 54.667 -11 90v237h137v-219c0 -20 1.16699 -36.333 3.5 -49s9.83301 -24.667 22.5 -36
c10 -8.66699 22.5 -14.667 37.5 -18s30.167 -5 45.5 -5h127v327h137v-740z" />
    <glyph glyph-name="Oslash" unicode="&#xd8;" horiz-adv-x="1000" 
d="M931 0h-863v740h137v-607h226v607h137v-607h226v607h137v-740z" />
    <glyph glyph-name="Oslash" unicode="&#x428;" horiz-adv-x="1000" 
d="M931 0h-863v740h137v-607h226v607h137v-607h226v607h137v-740z" />
    <glyph glyph-name="Ugrave" unicode="&#xd9;" horiz-adv-x="1020" 
d="M1015 -140h-137v140h-810v740h137v-607h226v607h137v-607h226v607h137v-607h84v-273z" />
    <glyph glyph-name="Ugrave" unicode="&#x429;" horiz-adv-x="1020" 
d="M1015 -140h-137v140h-810v740h137v-607h226v607h137v-607h226v607h137v-607h84v-273z" />
    <glyph glyph-name="Uacute" unicode="&#xda;" horiz-adv-x="680" 
d="M660 227c0 -67.333 -22.668 -122 -68.001 -164s-104.333 -63 -177 -63h-247v607h-160v133h297v-285h110c84.667 0 148.334 -24 191.001 -72c36 -40.667 54 -92.667 54 -156zM522.999 227c0 29.333 -9.83301 52.5 -29.5 69.5s-45.5 25.5 -77.5 25.5h-111v-189h111
c32 0 57.833 8.5 77.5 25.5s29.5 39.833 29.5 68.5z" />
    <glyph glyph-name="Uacute" unicode="&#x42a;" horiz-adv-x="680" 
d="M660 227c0 -67.333 -22.668 -122 -68.001 -164s-104.333 -63 -177 -63h-247v607h-160v133h297v-285h110c84.667 0 148.334 -24 191.001 -72c36 -40.667 54 -92.667 54 -156zM522.999 227c0 29.333 -9.83301 52.5 -29.5 69.5s-45.5 25.5 -77.5 25.5h-111v-189h111
c32 0 57.833 8.5 77.5 25.5s29.5 39.833 29.5 68.5z" />
    <glyph glyph-name="Ucircumflex" unicode="&#xdb;" horiz-adv-x="840" 
d="M772 0h-137v740h137v-740zM560 227c0 -67.333 -22.668 -122 -68.001 -164s-104.333 -63 -177 -63h-247v740h137v-285h110c84.667 0 148.334 -24 191.001 -72c36 -40.667 54 -92.667 54 -156zM422.999 227c0 29.333 -9.83301 52.5 -29.5 69.5s-45.5 25.5 -77.5 25.5h-111
v-189h111c32 0 57.833 8.5 77.5 25.5s29.5 39.833 29.5 68.5z" />
    <glyph glyph-name="Ucircumflex" unicode="&#x42b;" horiz-adv-x="840" 
d="M772 0h-137v740h137v-740zM560 227c0 -67.333 -22.668 -122 -68.001 -164s-104.333 -63 -177 -63h-247v740h137v-285h110c84.667 0 148.334 -24 191.001 -72c36 -40.667 54 -92.667 54 -156zM422.999 227c0 29.333 -9.83301 52.5 -29.5 69.5s-45.5 25.5 -77.5 25.5h-111
v-189h111c32 0 57.833 8.5 77.5 25.5s29.5 39.833 29.5 68.5z" />
    <glyph glyph-name="Udieresis" unicode="&#xdc;" horiz-adv-x="580" 
d="M560 227c0 -67.333 -22.668 -122 -68.001 -164s-104.333 -63 -177 -63h-247v740h137v-285h110c84.667 0 148.334 -24 191.001 -72c36 -40.667 54 -92.667 54 -156zM422.999 227c0 29.333 -9.83301 52.5 -29.5 69.5s-45.5 25.5 -77.5 25.5h-111v-189h111
c32 0 57.833 8.5 77.5 25.5s29.5 39.833 29.5 68.5z" />
    <glyph glyph-name="Udieresis" unicode="&#x42c;" horiz-adv-x="580" 
d="M560 227c0 -67.333 -22.668 -122 -68.001 -164s-104.333 -63 -177 -63h-247v740h137v-285h110c84.667 0 148.334 -24 191.001 -72c36 -40.667 54 -92.667 54 -156zM422.999 227c0 29.333 -9.83301 52.5 -29.5 69.5s-45.5 25.5 -77.5 25.5h-111v-189h111
c32 0 57.833 8.5 77.5 25.5s29.5 39.833 29.5 68.5z" />
    <glyph glyph-name="Yacute" unicode="&#xdd;" horiz-adv-x="780" 
d="M750 370c0 -98.667 -30.665 -185.001 -91.998 -259.001c-71.333 -86 -168.333 -129 -291 -129c-80 0 -149.167 19.5 -207.5 58.5s-103.5 92.5 -135.5 160.5h159c21.333 -28.667 47.833 -50.167 79.5 -64.5s67.167 -21.5 106.5 -21.5c56 0 105.333 16.333 148 49
c46.667 35.333 75.667 82.333 87 141h-335v130h334c-14 54 -39.667 97.333 -77 130c-42 36.667 -94 55 -156 55c-32.667 0 -61.667 -4.33301 -87 -13c-42.667 -14.667 -78.334 -41 -107.001 -79h-156c30.667 70.667 76.5 125.834 137.5 165.501s132.167 59.5 213.5 59.5
c119.333 0 214.666 -42 285.999 -126c62 -73.333 93 -159 93 -257z" />
    <glyph glyph-name="Yacute" unicode="&#x42d;" horiz-adv-x="780" 
d="M750 370c0 -98.667 -30.665 -185.001 -91.998 -259.001c-71.333 -86 -168.333 -129 -291 -129c-80 0 -149.167 19.5 -207.5 58.5s-103.5 92.5 -135.5 160.5h159c21.333 -28.667 47.833 -50.167 79.5 -64.5s67.167 -21.5 106.5 -21.5c56 0 105.333 16.333 148 49
c46.667 35.333 75.667 82.333 87 141h-335v130h334c-14 54 -39.667 97.333 -77 130c-42 36.667 -94 55 -156 55c-32.667 0 -61.667 -4.33301 -87 -13c-42.667 -14.667 -78.334 -41 -107.001 -79h-156c30.667 70.667 76.5 125.834 137.5 165.501s132.167 59.5 213.5 59.5
c119.333 0 214.666 -42 285.999 -126c62 -73.333 93 -159 93 -257z" />
    <glyph glyph-name="Thorn" unicode="&#xde;" horiz-adv-x="1120" 
d="M1090 366c0 -107.333 -37.168 -198.167 -111.501 -272.5s-165.5 -111.5 -273.5 -111.5c-89.333 0 -169.666 27.333 -240.999 82c-79.333 60.667 -126 142 -140 244h-119v-308h-137v740h137v-295h123c17.333 93.333 63 168.666 137 225.999c70 54.667 150 82 240 82
c108.667 0 200 -37.667 274 -113s111 -166.666 111 -273.999zM952.999 368.999c0 69.333 -23.834 128.5 -71.501 177.5s-106.5 73.5 -176.5 73.5s-128.833 -24.5 -176.5 -73.5s-71.5 -108.167 -71.5 -177.5c0 -70 23.833 -129.833 71.5 -179.5s106.167 -74.5 175.5 -74.5
c70.667 0 129.834 24.833 177.501 74.5s71.5 109.5 71.5 179.5z" />
    <glyph glyph-name="Thorn" unicode="&#x42e;" horiz-adv-x="1120" 
d="M1090 366c0 -107.333 -37.168 -198.167 -111.501 -272.5s-165.5 -111.5 -273.5 -111.5c-89.333 0 -169.666 27.333 -240.999 82c-79.333 60.667 -126 142 -140 244h-119v-308h-137v740h137v-295h123c17.333 93.333 63 168.666 137 225.999c70 54.667 150 82 240 82
c108.667 0 200 -37.667 274 -113s111 -166.666 111 -273.999zM952.999 368.999c0 69.333 -23.834 128.5 -71.501 177.5s-106.5 73.5 -176.5 73.5s-128.833 -24.5 -176.5 -73.5s-71.5 -108.167 -71.5 -177.5c0 -70 23.833 -129.833 71.5 -179.5s106.167 -74.5 175.5 -74.5
c70.667 0 129.834 24.833 177.501 74.5s71.5 109.5 71.5 179.5z" />
    <glyph glyph-name="germandbls" unicode="&#xdf;" horiz-adv-x="600" 
d="M532 0h-137.001v287l-200 -287h-160l204 273c-58.667 7.33301 -106 30.333 -142 69c-38 41.333 -57 93.333 -57 156c0 58.667 15 108 45 148c46.667 62.667 124.334 94 233.001 94h214v-740zM394.999 387l-0.000976562 220h-81c-50 0 -86.333 -11.333 -109 -34
c-18.667 -18.667 -28 -44 -28 -76s9 -57 27 -75c22.667 -23.333 59.334 -35 110.001 -35h81z" />
    <glyph glyph-name="germandbls" unicode="&#x42f;" horiz-adv-x="600" 
d="M532 0h-137.001v287l-200 -287h-160l204 273c-58.667 7.33301 -106 30.333 -142 69c-38 41.333 -57 93.333 -57 156c0 58.667 15 108 45 148c46.667 62.667 124.334 94 233.001 94h214v-740zM394.999 387l-0.000976562 220h-81c-50 0 -86.333 -11.333 -109 -34
c-18.667 -18.667 -28 -44 -28 -76s9 -57 27 -75c22.667 -23.333 59.334 -35 110.001 -35h81z" />
    <glyph glyph-name="agrave" unicode="&#xe0;" horiz-adv-x="660" 
d="M606 0h-122v75c-22 -30 -49.167 -53 -81.5 -69s-67.5 -24 -105.5 -24c-73.333 0 -136 26 -188 78c-55.333 55.333 -83 126 -83 212s26.5 157.5 79.5 214.5s118.167 85.5 195.5 85.5c80 0 140.333 -32 181 -96l2 78h122v-554zM481 278
c0 48.667 -14.499 88.834 -43.499 120.501s-67.5 47.5 -115.5 47.5c-47.333 0 -86.333 -16.333 -117 -49s-46 -74.334 -46 -125.001c0 -47.333 15.167 -86.5 45.5 -117.5s69.5 -46.5 117.5 -46.5c47.333 0 85.666 15.667 114.999 47s44 72.333 44 123z" />
    <glyph glyph-name="agrave" unicode="&#x430;" horiz-adv-x="660" 
d="M606 0h-122v75c-22 -30 -49.167 -53 -81.5 -69s-67.5 -24 -105.5 -24c-73.333 0 -136 26 -188 78c-55.333 55.333 -83 126 -83 212s26.5 157.5 79.5 214.5s118.167 85.5 195.5 85.5c80 0 140.333 -32 181 -96l2 78h122v-554zM481 278
c0 48.667 -14.499 88.834 -43.499 120.501s-67.5 47.5 -115.5 47.5c-47.333 0 -86.333 -16.333 -117 -49s-46 -74.334 -46 -125.001c0 -47.333 15.167 -86.5 45.5 -117.5s69.5 -46.5 117.5 -46.5c47.333 0 85.666 15.667 114.999 47s44 72.333 44 123z" />
    <glyph glyph-name="aacute" unicode="&#xe1;" horiz-adv-x="640" 
d="M614 277c0 -86.667 -27.5 -157.5 -82.5 -212.5s-127.167 -82.5 -216.5 -82.5c-80.667 0 -144.667 21.333 -192 64c-37.333 33.333 -64 80.333 -80 141c-11.333 42.667 -17 89.667 -17 141c0 120.667 25 215 75 283c38 52 89.667 88 155 108
c36.667 11.333 77.667 17 123 17l212 4v-118l-215 -4c-54.667 0 -100 -9.33301 -136 -28c-56 -28.667 -89.333 -77.334 -100 -146.001c24 32.667 53.667 57.834 89 75.501s76 26.5 122 26.5c76.667 0 139.667 -24.667 189 -74s74 -114.333 74 -195zM481 268
c0 50 -14.5 89.167 -43.5 117.5s-67.167 42.5 -114.5 42.5c-46 0 -83.833 -14.5 -113.5 -43.5s-44.5 -67.833 -44.5 -116.5c0 -49.333 14.333 -88.333 43 -117s67 -43 115 -43s86.333 14.667 115 44s43 68 43 116z" />
    <glyph glyph-name="aacute" unicode="&#x431;" horiz-adv-x="640" 
d="M614 277c0 -86.667 -27.5 -157.5 -82.5 -212.5s-127.167 -82.5 -216.5 -82.5c-80.667 0 -144.667 21.333 -192 64c-37.333 33.333 -64 80.333 -80 141c-11.333 42.667 -17 89.667 -17 141c0 120.667 25 215 75 283c38 52 89.667 88 155 108
c36.667 11.333 77.667 17 123 17l212 4v-118l-215 -4c-54.667 0 -100 -9.33301 -136 -28c-56 -28.667 -89.333 -77.334 -100 -146.001c24 32.667 53.667 57.834 89 75.501s76 26.5 122 26.5c76.667 0 139.667 -24.667 189 -74s74 -114.333 74 -195zM481 268
c0 50 -14.5 89.167 -43.5 117.5s-67.167 42.5 -114.5 42.5c-46 0 -83.833 -14.5 -113.5 -43.5s-44.5 -67.833 -44.5 -116.5c0 -49.333 14.333 -88.333 43 -117s67 -43 115 -43s86.333 14.667 115 44s43 68 43 116z" />
    <glyph glyph-name="acircumflex" unicode="&#xe2;" horiz-adv-x="500" 
d="M478 165c0 -46.667 -15.334 -85 -46.001 -115c-34 -33.333 -81 -50 -141 -50h-237v554h244c52 0 92.667 -15.667 122 -47c25.333 -27.333 38 -60 38 -98c0 -26 -7.66699 -49 -23 -69s-35.666 -35.333 -60.999 -46c32.667 -9.33301 58.167 -25.5 76.5 -48.5
s27.5 -49.833 27.5 -80.5zM327.999 390c0 13.333 -3.66895 24.333 -11.002 33c-9.33301 11.333 -23.666 17 -42.999 17h-87v-100h87c14.667 0 27.334 4.33301 38.001 13s16 21 16 37zM347.997 170c0 12.667 -3.33301 23.667 -10 33c-11.333 15.333 -30 23 -56 23h-95v-112
h95c24 0 41.667 6.33301 53 19c8.66699 10 13 22.333 13 37z" />
    <glyph glyph-name="acircumflex" unicode="&#x432;" horiz-adv-x="500" 
d="M478 165c0 -46.667 -15.334 -85 -46.001 -115c-34 -33.333 -81 -50 -141 -50h-237v554h244c52 0 92.667 -15.667 122 -47c25.333 -27.333 38 -60 38 -98c0 -26 -7.66699 -49 -23 -69s-35.666 -35.333 -60.999 -46c32.667 -9.33301 58.167 -25.5 76.5 -48.5
s27.5 -49.833 27.5 -80.5zM327.999 390c0 13.333 -3.66895 24.333 -11.002 33c-9.33301 11.333 -23.666 17 -42.999 17h-87v-100h87c14.667 0 27.334 4.33301 38.001 13s16 21 16 37zM347.997 170c0 12.667 -3.33301 23.667 -10 33c-11.333 15.333 -30 23 -56 23h-95v-112
h95c24 0 41.667 6.33301 53 19c8.66699 10 13 22.333 13 37z" />
    <glyph glyph-name="atilde" unicode="&#xe3;" horiz-adv-x="380" 
d="M368 436h-181v-436h-133v554h314v-118z" />
    <glyph glyph-name="atilde" unicode="&#x433;" horiz-adv-x="380" 
d="M368 436h-181v-436h-133v554h314v-118z" />
    <glyph glyph-name="adieresis" unicode="&#xe4;" horiz-adv-x="680" 
d="M669 -140h-130v140h-398v-140h-130v258h66l203 436h120l203 -436h66v-258zM453 118l-113 256l-113 -256h226z" />
    <glyph glyph-name="adieresis" unicode="&#x434;" horiz-adv-x="680" 
d="M669 -140h-130v140h-398v-140h-130v258h66l203 436h120l203 -436h66v-258zM453 118l-113 256l-113 -256h226z" />
    <glyph glyph-name="aring" unicode="&#xe5;" horiz-adv-x="640" 
d="M610 277l0.000976562 -15c0 -14 -1 -28.667 -3 -44h-434c8.66699 -33.333 26.167 -60 52.5 -80s57.166 -30 92.499 -30c23.333 0 45 3.66699 65 11c24 9.33301 43.667 23 59 41h150c-24.667 -58 -61.167 -102.167 -109.5 -132.5s-101.5 -45.5 -159.5 -45.5
c-92 0 -165.667 32.667 -221 98c-48 56.667 -72 121 -72 193c0 73.333 24 139 72 197c56 68 130.333 102 223 102c84 0 152.5 -28.167 205.5 -84.5s79.5 -126.5 79.5 -210.5zM471.001 336c-9.33301 34.667 -27.332 61.667 -53.999 81s-57.334 29 -92.001 29
c-36 0 -67.833 -10 -95.5 -30s-47.167 -46.667 -58.5 -80h300z" />
    <glyph glyph-name="aring" unicode="&#x435;" horiz-adv-x="640" 
d="M610 277l0.000976562 -15c0 -14 -1 -28.667 -3 -44h-434c8.66699 -33.333 26.167 -60 52.5 -80s57.166 -30 92.499 -30c23.333 0 45 3.66699 65 11c24 9.33301 43.667 23 59 41h150c-24.667 -58 -61.167 -102.167 -109.5 -132.5s-101.5 -45.5 -159.5 -45.5
c-92 0 -165.667 32.667 -221 98c-48 56.667 -72 121 -72 193c0 73.333 24 139 72 197c56 68 130.333 102 223 102c84 0 152.5 -28.167 205.5 -84.5s79.5 -126.5 79.5 -210.5zM471.001 336c-9.33301 34.667 -27.332 61.667 -53.999 81s-57.334 29 -92.001 29
c-36 0 -67.833 -10 -95.5 -30s-47.167 -46.667 -58.5 -80h300z" />
    <glyph glyph-name="ae" unicode="&#xe6;" horiz-adv-x="840" 
d="M824 0h-157l-180 266v-266h-133v266l-180 -266h-157l202 290l-190 264h157l168 -254v254h133v-254l168 254h157l-190 -264z" />
    <glyph glyph-name="ae" unicode="&#x436;" horiz-adv-x="840" 
d="M824 0h-157l-180 266v-266h-133v266l-180 -266h-157l202 290l-190 264h157l168 -254v254h133v-254l168 254h157l-190 -264z" />
    <glyph glyph-name="ccedilla" unicode="&#xe7;" horiz-adv-x="460" 
d="M431 163c0 -54 -18.333 -97.666 -55 -130.999s-85.667 -50 -147 -50c-74.667 0 -129.334 23.333 -164.001 70c-26.667 36 -40 81 -40 135h133c0 -22 5.66699 -40 17 -54c14 -16.667 33.667 -25 59 -25c18.667 0 34 5 46 15s18 24.333 18 43c0 24 -8 40.667 -24 50
c-9.33301 5.33301 -21 8 -35 8h-31v114h25c20.667 0 35.5 5.16699 44.5 15.5s13.5 23.166 13.5 38.499c0 22 -7 37.333 -21 46c-8.66699 5.33301 -20.334 8 -35.001 8c-18 0 -32.667 -5.16699 -44 -15.5s-17.666 -23.833 -18.999 -40.5h-133c0 50 17.5 92.833 52.5 128.5
s81.833 53.5 140.5 53.5c62 0 110 -16 144 -48c30 -28 45 -63.667 45 -107c0 -27.333 -8.16699 -51.5 -24.5 -72.5s-38.166 -36.167 -65.499 -45.5c32.667 -8 57.5 -24.333 74.5 -49s25.5 -53.667 25.5 -87z" />
    <glyph glyph-name="ccedilla" unicode="&#x437;" horiz-adv-x="460" 
d="M431 163c0 -54 -18.333 -97.666 -55 -130.999s-85.667 -50 -147 -50c-74.667 0 -129.334 23.333 -164.001 70c-26.667 36 -40 81 -40 135h133c0 -22 5.66699 -40 17 -54c14 -16.667 33.667 -25 59 -25c18.667 0 34 5 46 15s18 24.333 18 43c0 24 -8 40.667 -24 50
c-9.33301 5.33301 -21 8 -35 8h-31v114h25c20.667 0 35.5 5.16699 44.5 15.5s13.5 23.166 13.5 38.499c0 22 -7 37.333 -21 46c-8.66699 5.33301 -20.334 8 -35.001 8c-18 0 -32.667 -5.16699 -44 -15.5s-17.666 -23.833 -18.999 -40.5h-133c0 50 17.5 92.833 52.5 128.5
s81.833 53.5 140.5 53.5c62 0 110 -16 144 -48c30 -28 45 -63.667 45 -107c0 -27.333 -8.16699 -51.5 -24.5 -72.5s-38.166 -36.167 -65.499 -45.5c32.667 -8 57.5 -24.333 74.5 -49s25.5 -53.667 25.5 -87z" />
    <glyph glyph-name="egrave" unicode="&#xe8;" horiz-adv-x="620" 
d="M566 0h-133v359l-246 -359h-133v554h133v-359l246 359h133v-554z" />
    <glyph glyph-name="egrave" unicode="&#x438;" horiz-adv-x="620" 
d="M566 0h-133v359l-246 -359h-133v554h133v-359l246 359h133v-554z" />
    <glyph glyph-name="eacute" unicode="&#xe9;" horiz-adv-x="620" 
d="M475 756c-5.33301 -39.333 -23.166 -71.833 -53.499 -97.5s-67.5 -38.5 -111.5 -38.5c-44.667 0 -81.834 12.833 -111.501 38.5s-47.5 58.167 -53.5 97.5h100c4 -14.667 12 -26 24 -34s25.667 -12 41 -12c35.333 0 57 15.333 65 46h100zM566 0h-133v359l-246 -359h-133
v554h133v-359l246 359h133v-554z" />
    <glyph glyph-name="eacute" unicode="&#x439;" horiz-adv-x="620" 
d="M475 756c-5.33301 -39.333 -23.166 -71.833 -53.499 -97.5s-67.5 -38.5 -111.5 -38.5c-44.667 0 -81.834 12.833 -111.501 38.5s-47.5 58.167 -53.5 97.5h100c4 -14.667 12 -26 24 -34s25.667 -12 41 -12c35.333 0 57 15.333 65 46h100zM566 0h-133v359l-246 -359h-133
v554h133v-359l246 359h133v-554z" />
    <glyph glyph-name="ecircumflex" unicode="&#xea;" horiz-adv-x="580" 
d="M555 0h-168l-200 266v-266h-133v554h133v-254l198 254h158l-221 -260z" />
    <glyph glyph-name="ecircumflex" unicode="&#x43a;" horiz-adv-x="580" 
d="M555 0h-168l-200 266v-266h-133v554h133v-254l198 254h158l-221 -260z" />
    <glyph glyph-name="edieresis" unicode="&#xeb;" horiz-adv-x="580" 
d="M576 0h-148l-138 374l-138 -374h-148l226 554h120z" />
    <glyph glyph-name="edieresis" unicode="&#x43b;" horiz-adv-x="580" 
d="M576 0h-148l-138 374l-138 -374h-148l226 554h120z" />
    <glyph glyph-name="igrave" unicode="&#xec;" horiz-adv-x="780" 
d="M726 0h-133v407l-148 -407h-110l-148 407v-407h-133v554h193l143 -394l143 394h193v-554z" />
    <glyph glyph-name="igrave" unicode="&#x43c;" horiz-adv-x="780" 
d="M726 0h-133v407l-148 -407h-110l-148 407v-407h-133v554h193l143 -394l143 394h193v-554z" />
    <glyph glyph-name="iacute" unicode="&#xed;" horiz-adv-x="580" 
d="M526 0h-133v232h-206v-232h-133v554h133v-204h206v204h133v-554z" />
    <glyph glyph-name="iacute" unicode="&#x43d;" horiz-adv-x="580" 
d="M526 0h-133v232h-206v-232h-133v554h133v-204h206v204h133v-554z" />
    <glyph glyph-name="icircumflex" unicode="&#xee;" horiz-adv-x="640" 
d="M614 276c0 -81.333 -28.002 -150.667 -84.002 -208s-126 -86 -210 -86c-83.333 0 -153.166 28.5 -209.499 85.5s-84.5 126.5 -84.5 208.5s27.833 151.833 83.5 209.5s125.834 86.5 210.501 86.5c84 0 154 -28.667 210 -86s84 -127.333 84 -210zM480.998 275.999
c0 47.333 -14.667 87.498 -44 120.498s-68.333 49.5 -117 49.5c-48 0 -86.833 -16.5 -116.5 -49.5s-44.5 -73.167 -44.5 -120.5s14.667 -87.166 44 -119.499s68.333 -48.5 117 -48.5c47.333 0 86 16.333 116 49s45 72.334 45 119.001z" />
    <glyph glyph-name="icircumflex" unicode="&#x43e;" horiz-adv-x="640" 
d="M614 276c0 -81.333 -28.002 -150.667 -84.002 -208s-126 -86 -210 -86c-83.333 0 -153.166 28.5 -209.499 85.5s-84.5 126.5 -84.5 208.5s27.833 151.833 83.5 209.5s125.834 86.5 210.501 86.5c84 0 154 -28.667 210 -86s84 -127.333 84 -210zM480.998 275.999
c0 47.333 -14.667 87.498 -44 120.498s-68.333 49.5 -117 49.5c-48 0 -86.833 -16.5 -116.5 -49.5s-44.5 -73.167 -44.5 -120.5s14.667 -87.166 44 -119.499s68.333 -48.5 117 -48.5c47.333 0 86 16.333 116 49s45 72.334 45 119.001z" />
    <glyph glyph-name="idieresis" unicode="&#xef;" horiz-adv-x="580" 
d="M526 0h-133v436h-206v-436h-133v554h472v-554z" />
    <glyph glyph-name="idieresis" unicode="&#x43f;" horiz-adv-x="580" 
d="M526 0h-133v436h-206v-436h-133v554h472v-554z" />
    <glyph glyph-name="eth" unicode="&#xf0;" horiz-adv-x="660" 
d="M634 277c0 -80 -24.333 -148 -73 -204c-52.667 -60.667 -121 -91 -205 -91c-29.333 0 -56.333 4.66699 -81 14c-34 12.667 -62.667 34 -86 64l-2 -245h-133v739h122v-72c22 34 52.667 58.667 92 74c28 10.667 57.333 16 88 16c78 0 143.833 -27.167 197.5 -81.5
s80.5 -125.5 80.5 -213.5zM501 278c0 42.667 -12.333 79.667 -37 111c-30 38 -70.667 57 -122 57c-48 0 -87.167 -15.833 -117.5 -47.5s-45.5 -72.167 -45.5 -121.5c0 -52 14.833 -93.167 44.5 -123.5s67.5 -45.5 113.5 -45.5c48 0 87.333 16 118 48s46 72.667 46 122z" />
    <glyph glyph-name="eth" unicode="&#x440;" horiz-adv-x="660" 
d="M634 277c0 -80 -24.333 -148 -73 -204c-52.667 -60.667 -121 -91 -205 -91c-29.333 0 -56.333 4.66699 -81 14c-34 12.667 -62.667 34 -86 64l-2 -245h-133v739h122v-72c22 34 52.667 58.667 92 74c28 10.667 57.333 16 88 16c78 0 143.833 -27.167 197.5 -81.5
s80.5 -125.5 80.5 -213.5zM501 278c0 42.667 -12.333 79.667 -37 111c-30 38 -70.667 57 -122 57c-48 0 -87.167 -15.833 -117.5 -47.5s-45.5 -72.167 -45.5 -121.5c0 -52 14.833 -93.167 44.5 -123.5s67.5 -45.5 113.5 -45.5c48 0 87.333 16 118 48s46 72.667 46 122z" />
    <glyph glyph-name="ntilde" unicode="&#xf1;" horiz-adv-x="640" 
d="M610 180c-21.333 -60.667 -55.498 -108.832 -102.498 -144.499s-104.167 -53.5 -171.5 -53.5c-97.333 0 -174.333 32.333 -231 97c-50 56.667 -75 124 -75 202c0 74 24 138.667 72 194c56 64.667 132.333 97 229 97c68.667 0 127.667 -18.333 177 -55
s83.333 -85.667 102 -147h-150c-12.667 25.333 -30.167 44.333 -52.5 57s-48.5 19 -78.5 19c-51.333 0 -91.833 -16.167 -121.5 -48.5s-44.5 -71.833 -44.5 -118.5c0 -48.667 15 -89.334 45 -122.001s70.333 -49 121 -49c31.333 0 57.666 6 78.999 18s38.666 30 51.999 54
h150z" />
    <glyph glyph-name="ntilde" unicode="&#x441;" horiz-adv-x="640" 
d="M610 180c-21.333 -60.667 -55.498 -108.832 -102.498 -144.499s-104.167 -53.5 -171.5 -53.5c-97.333 0 -174.333 32.333 -231 97c-50 56.667 -75 124 -75 202c0 74 24 138.667 72 194c56 64.667 132.333 97 229 97c68.667 0 127.667 -18.333 177 -55
s83.333 -85.667 102 -147h-150c-12.667 25.333 -30.167 44.333 -52.5 57s-48.5 19 -78.5 19c-51.333 0 -91.833 -16.167 -121.5 -48.5s-44.5 -71.833 -44.5 -118.5c0 -48.667 15 -89.334 45 -122.001s70.333 -49 121 -49c31.333 0 57.666 6 78.999 18s38.666 30 51.999 54
h150z" />
    <glyph glyph-name="ograve" unicode="&#xf2;" horiz-adv-x="420" 
d="M409 436h-133v-436h-133v436h-133v118h399v-118z" />
    <glyph glyph-name="ograve" unicode="&#x442;" horiz-adv-x="420" 
d="M409 436h-133v-436h-133v436h-133v118h399v-118z" />
    <glyph glyph-name="oacute" unicode="&#xf3;" horiz-adv-x="580" 
d="M568 554l-318 -739h-143l102 237l-203 502h151l127 -355l133 355h151z" />
    <glyph glyph-name="oacute" unicode="&#x443;" horiz-adv-x="580" 
d="M568 554l-318 -739h-143l102 237l-203 502h151l127 -355l133 355h151z" />
    <glyph glyph-name="ocircumflex" unicode="&#xf4;" horiz-adv-x="820" 
d="M791 277c0 -71.333 -25.333 -135.667 -76 -193c-60 -68 -139.333 -102 -238 -102v-167h-133v167c-98.667 0 -177.667 33.667 -237 101c-51.333 58 -77 122.667 -77 194c0 78.667 28.333 146.667 85 204c60 60.667 136.333 91 229 91v168h133v-168
c92.667 0 169 -30.333 229 -91c56.667 -57.333 85 -125.333 85 -204zM658 276.999c0 47.333 -14 87.334 -42 120.001c-32.667 38 -79 57 -139 57v-354c50 0 92.667 16.667 128 50s53 75.666 53 126.999zM344 100v354.001c-59.333 0 -105.333 -19 -138 -57
c-28.667 -33.333 -43 -73.333 -43 -120c0 -50.667 17.833 -92.834 53.5 -126.501s78.167 -50.5 127.5 -50.5z" />
    <glyph glyph-name="ocircumflex" unicode="&#x444;" horiz-adv-x="820" 
d="M791 277c0 -71.333 -25.333 -135.667 -76 -193c-60 -68 -139.333 -102 -238 -102v-167h-133v167c-98.667 0 -177.667 33.667 -237 101c-51.333 58 -77 122.667 -77 194c0 78.667 28.333 146.667 85 204c60 60.667 136.333 91 229 91v168h133v-168
c92.667 0 169 -30.333 229 -91c56.667 -57.333 85 -125.333 85 -204zM658 276.999c0 47.333 -14 87.334 -42 120.001c-32.667 38 -79 57 -139 57v-354c50 0 92.667 16.667 128 50s53 75.666 53 126.999zM344 100v354.001c-59.333 0 -105.333 -19 -138 -57
c-28.667 -33.333 -43 -73.333 -43 -120c0 -50.667 17.833 -92.834 53.5 -126.501s78.167 -50.5 127.5 -50.5z" />
    <glyph glyph-name="otilde" unicode="&#xf5;" 
d="M556 0h-164l-112 179l-112 -179h-164l187 284l-172 270h155l105 -166l105 166h155l-176 -270z" />
    <glyph glyph-name="otilde" unicode="&#x445;" 
d="M556 0h-164l-112 179l-112 -179h-164l187 284l-172 270h155l105 -166l105 166h155l-176 -270z" />
    <glyph glyph-name="odieresis" unicode="&#xf6;" horiz-adv-x="620" 
d="M612 -140h-130v140h-428v554h133v-436h208v436h133v-436h84v-258z" />
    <glyph glyph-name="odieresis" unicode="&#x446;" horiz-adv-x="620" 
d="M612 -140h-130v140h-428v554h133v-436h208v436h133v-436h84v-258z" />
    <glyph glyph-name="divide" unicode="&#xf7;" horiz-adv-x="520" 
d="M466 0h-133v190h-78c-101.333 0 -167 25 -197 75c-14.667 24 -22 68 -22 132v157h133v-157c0 -28.667 3 -48 9 -58c12 -20.667 37.667 -31 77 -31h78v246h133v-554z" />
    <glyph glyph-name="divide" unicode="&#x447;" horiz-adv-x="520" 
d="M466 0h-133v190h-78c-101.333 0 -167 25 -197 75c-14.667 24 -22 68 -22 132v157h133v-157c0 -28.667 3 -48 9 -58c12 -20.667 37.667 -31 77 -31h78v246h133v-554z" />
    <glyph glyph-name="oslash" unicode="&#xf8;" horiz-adv-x="840" 
d="M789 0h-735v554h133v-436h168v436h133v-436h168v436h133v-554z" />
    <glyph glyph-name="oslash" unicode="&#x448;" horiz-adv-x="840" 
d="M789 0h-735v554h133v-436h168v436h133v-436h168v436h133v-554z" />
    <glyph glyph-name="ugrave" unicode="&#xf9;" horiz-adv-x="880" 
d="M873 -140h-130v140h-689v554h133v-436h168v436h133v-436h168v436h133v-436h84v-258z" />
    <glyph glyph-name="ugrave" unicode="&#x449;" horiz-adv-x="880" 
d="M873 -140h-130v140h-689v554h133v-436h168v436h133v-436h168v436h133v-436h84v-258z" />
    <glyph glyph-name="uacute" unicode="&#xfa;" horiz-adv-x="600" 
d="M572 180c0 -54.667 -17.332 -98.333 -51.999 -131s-79.334 -49 -134.001 -49h-252v436h-129v118h262v-194h119c61.333 0 108.333 -18 141 -54c30 -32.667 45 -74.667 45 -126zM439.001 180.001c0 16.667 -4.33301 30.333 -13 41c-12 14 -30 21 -54 21h-105v-124h105
c20.667 0 37 5.16699 49 15.5s18 25.833 18 46.5z" />
    <glyph glyph-name="uacute" unicode="&#x44a;" horiz-adv-x="600" 
d="M572 180c0 -54.667 -17.332 -98.333 -51.999 -131s-79.334 -49 -134.001 -49h-252v436h-129v118h262v-194h119c61.333 0 108.333 -18 141 -54c30 -32.667 45 -74.667 45 -126zM439.001 180.001c0 16.667 -4.33301 30.333 -13 41c-12 14 -30 21 -54 21h-105v-124h105
c20.667 0 37 5.16699 49 15.5s18 25.833 18 46.5z" />
    <glyph glyph-name="ucircumflex" unicode="&#xfb;" horiz-adv-x="740" 
d="M686 0h-133v554h133v-554zM492 180c0 -54.667 -17.332 -98.333 -51.999 -131s-79.334 -49 -134.001 -49h-252v554h133v-194h119c61.333 0 108.333 -18 141 -54c30 -32.667 45 -74.667 45 -126zM359.001 180.001c0 16.667 -4.33301 30.333 -13 41c-12 14 -30 21 -54 21
h-105v-124h105c20.667 0 37 5.16699 49 15.5s18 25.833 18 46.5z" />
    <glyph glyph-name="ucircumflex" unicode="&#x44b;" horiz-adv-x="740" 
d="M686 0h-133v554h133v-554zM492 180c0 -54.667 -17.332 -98.333 -51.999 -131s-79.334 -49 -134.001 -49h-252v554h133v-194h119c61.333 0 108.333 -18 141 -54c30 -32.667 45 -74.667 45 -126zM359.001 180.001c0 16.667 -4.33301 30.333 -13 41c-12 14 -30 21 -54 21
h-105v-124h105c20.667 0 37 5.16699 49 15.5s18 25.833 18 46.5z" />
    <glyph glyph-name="udieresis" unicode="&#xfc;" horiz-adv-x="520" 
d="M492 180c0 -54.667 -17.332 -98.333 -51.999 -131s-79.334 -49 -134.001 -49h-252v554h133v-194h119c61.333 0 108.333 -18 141 -54c30 -32.667 45 -74.667 45 -126zM359.001 180.001c0 16.667 -4.33301 30.333 -13 41c-12 14 -30 21 -54 21h-105v-124h105
c20.667 0 37 5.16699 49 15.5s18 25.833 18 46.5z" />
    <glyph glyph-name="udieresis" unicode="&#x44c;" horiz-adv-x="520" 
d="M492 180c0 -54.667 -17.332 -98.333 -51.999 -131s-79.334 -49 -134.001 -49h-252v554h133v-194h119c61.333 0 108.333 -18 141 -54c30 -32.667 45 -74.667 45 -126zM359.001 180.001c0 16.667 -4.33301 30.333 -13 41c-12 14 -30 21 -54 21h-105v-124h105
c20.667 0 37 5.16699 49 15.5s18 25.833 18 46.5z" />
    <glyph glyph-name="yacute" unicode="&#xfd;" horiz-adv-x="640" 
d="M610 281c0 -77.333 -25.3311 -144.667 -75.998 -202c-57.333 -64.667 -133.666 -97 -228.999 -97c-66.667 0 -123.834 17.667 -171.501 53s-82.167 83.666 -103.5 144.999h150c15.333 -29.333 37.666 -49.666 66.999 -60.999c18.667 -7.33301 39.667 -11 63 -11
c41.333 0 75.5 10 102.5 30s45.833 46.667 56.5 80h-229v118h229c-10.667 36.667 -30.5 64.167 -59.5 82.5s-61.5 27.5 -97.5 27.5c-30.667 0 -57.334 -6.66699 -80.001 -20s-40 -32 -52 -56h-150c18.667 61.333 52.5 110.333 101.5 147s108.5 55 178.5 55
c94 0 169.333 -32 226 -96c49.333 -56 74 -121 74 -195z" />
    <glyph glyph-name="yacute" unicode="&#x44d;" horiz-adv-x="640" 
d="M610 281c0 -77.333 -25.3311 -144.667 -75.998 -202c-57.333 -64.667 -133.666 -97 -228.999 -97c-66.667 0 -123.834 17.667 -171.501 53s-82.167 83.666 -103.5 144.999h150c15.333 -29.333 37.666 -49.666 66.999 -60.999c18.667 -7.33301 39.667 -11 63 -11
c41.333 0 75.5 10 102.5 30s45.833 46.667 56.5 80h-229v118h229c-10.667 36.667 -30.5 64.167 -59.5 82.5s-61.5 27.5 -97.5 27.5c-30.667 0 -57.334 -6.66699 -80.001 -20s-40 -32 -52 -56h-150c18.667 61.333 52.5 110.333 101.5 147s108.5 55 178.5 55
c94 0 169.333 -32 226 -96c49.333 -56 74 -121 74 -195z" />
    <glyph glyph-name="thorn" unicode="&#xfe;" horiz-adv-x="880" 
d="M854 276c0 -82.667 -27.667 -152.332 -83 -208.999s-125.666 -85 -210.999 -85c-78 0 -143.5 23.167 -196.5 69.5s-84.833 105.166 -95.5 176.499h-81v-228h-133v554h133v-200h87c16.667 65.333 50.5 118 101.5 158s112.5 60 184.5 60
c85.333 0 155.666 -28.667 210.999 -86s83 -127.333 83 -210zM721 276.002c0 47.333 -14.667 87.5 -44 120.5s-68.333 49.5 -117 49.5c-48 0 -87 -16.5 -117 -49.5s-45 -73.167 -45 -120.5c0 -46.667 15 -86.334 45 -119.001s69 -49 117 -49c47.333 0 86 16.333 116 49
s45 72.334 45 119.001z" />
    <glyph glyph-name="thorn" unicode="&#x44e;" horiz-adv-x="880" 
d="M854 276c0 -82.667 -27.667 -152.332 -83 -208.999s-125.666 -85 -210.999 -85c-78 0 -143.5 23.167 -196.5 69.5s-84.833 105.166 -95.5 176.499h-81v-228h-133v554h133v-200h87c16.667 65.333 50.5 118 101.5 158s112.5 60 184.5 60
c85.333 0 155.666 -28.667 210.999 -86s83 -127.333 83 -210zM721 276.002c0 47.333 -14.667 87.5 -44 120.5s-68.333 49.5 -117 49.5c-48 0 -87 -16.5 -117 -49.5s-45 -73.167 -45 -120.5c0 -46.667 15 -86.334 45 -119.001s69 -49 117 -49c47.333 0 86 16.333 116 49
s45 72.334 45 119.001z" />
    <glyph glyph-name="ydieresis" unicode="&#xff;" horiz-adv-x="540" 
d="M486 0h-133.001v213l-164 -213h-166l167 196c-45.333 5.33301 -81.166 24.166 -107.499 56.499s-39.5 71.5 -39.5 117.5c0 50.667 17.333 93.334 52 128.001c37.333 37.333 87.333 56 150 56h241v-554zM352.999 297v139h-103c-22.667 0 -40.667 -6.66699 -54 -20
s-20 -31 -20 -53s7 -38.5 21 -49.5s31.667 -16.5 53 -16.5h103z" />
    <glyph glyph-name="ydieresis" unicode="&#x44f;" horiz-adv-x="540" 
d="M486 0h-133.001v213l-164 -213h-166l167 196c-45.333 5.33301 -81.166 24.166 -107.499 56.499s-39.5 71.5 -39.5 117.5c0 50.667 17.333 93.334 52 128.001c37.333 37.333 87.333 56 150 56h241v-554zM352.999 297v139h-103c-22.667 0 -40.667 -6.66699 -54 -20
s-20 -31 -20 -53s7 -38.5 21 -49.5s31.667 -16.5 53 -16.5h103z" />
    <glyph glyph-name="OE" unicode="&#x152;" horiz-adv-x="980" 
d="M960 227c0 -67.333 -22.668 -122 -68.001 -164s-104.333 -63 -177 -63h-247v322h-263v-322h-137v740h137v-285h263v285h137v-285h110c84.667 0 148.334 -24 191.001 -72c36 -40.667 54 -92.667 54 -156zM822.999 227c0 29.333 -9.83301 52.5 -29.5 69.5
s-45.5 25.5 -77.5 25.5h-111v-189h111c32 0 57.833 8.5 77.5 25.5s29.5 39.833 29.5 68.5z" />
    <glyph glyph-name="oe" unicode="&#x153;" horiz-adv-x="860" 
d="M832 180c0 -54.667 -17.332 -98.333 -51.999 -131s-79.334 -49 -134.001 -49h-252v242h-207v-242h-133v554h133v-194h207v194h133v-194h119c61.333 0 108.333 -18 141 -54c30 -32.667 45 -74.667 45 -126zM699.001 180.001c0 16.667 -4.33301 30.333 -13 41
c-12 14 -30 21 -54 21h-105v-124h105c20.667 0 37 5.16699 49 15.5s18 25.833 18 46.5z" />
    <glyph glyph-name="Scaron" unicode="&#x160;" horiz-adv-x="1000" 
d="M980 227c0 -67.333 -22.668 -122 -68.001 -164s-104.333 -63 -177 -63h-247v514l-310 -514h-161l471 740h137v-285h110c84.667 0 148.334 -24 191.001 -72c36 -40.667 54 -92.667 54 -156zM842.999 227c0 29.333 -9.83301 52.5 -29.5 69.5s-45.5 25.5 -77.5 25.5h-111
v-189h111c32 0 57.833 8.5 77.5 25.5s29.5 39.833 29.5 68.5z" />
    <glyph glyph-name="scaron" unicode="&#x161;" horiz-adv-x="840" 
d="M812 180c0 -54.667 -17.332 -98.333 -51.999 -131s-79.334 -49 -134.001 -49h-252v386l-208 -386h-154l315 554h180v-194h119c61.333 0 108.333 -18 141 -54c30 -32.667 45 -74.667 45 -126zM679.001 180.001c0 16.667 -4.33301 30.333 -13 41c-12 14 -30 21 -54 21h-105
v-124h105c20.667 0 37 5.16699 49 15.5s18 25.833 18 46.5z" />
    <glyph glyph-name="Ydieresis" unicode="&#x178;" horiz-adv-x="580" 
d="M526 0h-171v-160h-130v160h-171v554h133v-436h206v436h133v-554z" />
    <glyph glyph-name="florin" unicode="&#x192;" horiz-adv-x="380" 
d="M373 738l-229 -125l-50 92l225 135zM368 436h-181v-436h-133v554h314v-118z" />
    <glyph glyph-name="circumflex" unicode="&#x2c6;" horiz-adv-x="540" 
d="M470 620h-145l-54 64l-55 -64h-145l148 138h105z" />
    <glyph glyph-name="tilde" unicode="&#x2dc;" horiz-adv-x="480" 
d="M405 664c-18 -16.667 -36.0039 -28.667 -54.0039 -36c-13.333 -5.33301 -27.333 -8 -42 -8c-7.33301 0 -14.666 0.5 -21.999 1.5s-20.666 4.83301 -39.999 11.5l-27.5 8.5c-9.66699 3 -19.834 4.5 -30.501 4.5c-14 0 -26 -2 -36 -6s-20 -9.33301 -30 -16l-49 88
c14 12.667 29.833 22 47.5 28s35.167 9 52.5 9c20.667 0 44.334 -6 71.001 -18c14.667 -6.66699 28.334 -10 41.001 -10c14.667 0 27.334 2.5 38.001 7.5s21 11.833 31 20.5z" />
    <glyph glyph-name="endash" unicode="&#x2013;" horiz-adv-x="500" 
d="M500 259h-500v118h500v-118z" />
    <glyph glyph-name="emdash" unicode="&#x2014;" horiz-adv-x="1000" 
d="M1000 259h-1000v118h1000v-118z" />
    <glyph glyph-name="quoteleft" unicode="&#x2018;" horiz-adv-x="280" 
d="M206 480l-132.999 -0.00195312v128c0 30.667 2.5 53.334 7.5 68.001s14.5 28.334 28.5 41.001c26 24 57.667 36 95 36v-67c-16.667 0 -30.334 -4.83301 -41.001 -14.5s-16 -23.5 -16 -41.5v-17h59v-133z" />
    <glyph glyph-name="quoteright" unicode="&#x2019;" horiz-adv-x="280" 
d="M206 611l-0.00195312 -12c0 -20 -1.66699 -35.667 -5 -47c-5.33301 -19.333 -15.666 -36 -30.999 -50c-26 -24 -57.667 -36 -95 -36v67c16.667 0 30.334 4.83301 41.001 14.5s16 23.5 16 41.5v17h-59v133h133v-128z" />
    <glyph glyph-name="quotesinglbase" unicode="&#x201a;" horiz-adv-x="280" 
d="M206 5l-0.00195312 -12c0 -20 -1.66699 -35.667 -5 -47c-5.33301 -19.333 -15.666 -36 -30.999 -50c-26 -24 -57.667 -36 -95 -36v67c16.667 0 30.334 4.83301 41.001 14.5s16 23.5 16 41.5v17h-59v133h133v-128z" />
    <glyph glyph-name="quotedblleft" unicode="&#x201c;" horiz-adv-x="480" 
d="M410 480l-132.999 -0.00195312v128c0 30.667 2.5 53.334 7.5 68.001s14.5 28.334 28.5 41.001c26 24 57.667 36 95 36v-67c-16.667 0 -30.334 -4.83301 -41.001 -14.5s-16 -23.5 -16 -41.5v-17h59v-133zM203.001 479.998l-132.999 -0.00195312v128
c0 30.667 2.5 53.334 7.5 68.001s14.5 28.334 28.5 41.001c26 24 57.667 36 95 36v-67c-16.667 0 -30.334 -4.83301 -41.001 -14.5s-16 -23.5 -16 -41.5v-17h59v-133z" />
    <glyph glyph-name="quotedblright" unicode="&#x201d;" horiz-adv-x="480" 
d="M410 612l-0.00195312 -12c0 -20 -1.66699 -35.667 -5 -47c-5.33301 -19.333 -15.666 -36 -30.999 -50c-26 -24 -57.667 -36 -95 -36v67c16.667 0 30.334 4.83301 41.001 14.5s16 23.5 16 41.5v17h-59v133h133v-128zM202.998 612l-0.00195312 -12
c0 -20 -1.66699 -35.667 -5 -47c-5.33301 -19.333 -15.666 -36 -30.999 -50c-26 -24 -57.667 -36 -95 -36v67c16.667 0 30.334 4.83301 41.001 14.5s16 23.5 16 41.5v17h-59v133h133v-128z" />
    <glyph glyph-name="quotedblbase" unicode="&#x201e;" horiz-adv-x="480" 
d="M410 5l-0.00195312 -12c0 -20 -1.66699 -35.667 -5 -47c-5.33301 -19.333 -15.666 -36 -30.999 -50c-26 -24 -57.667 -36 -95 -36v67c16.667 0 30.334 4.83301 41.001 14.5s16 23.5 16 41.5v17h-59v133h133v-128zM202.998 5l-0.00195312 -12
c0 -20 -1.66699 -35.667 -5 -47c-5.33301 -19.333 -15.666 -36 -30.999 -50c-26 -24 -57.667 -36 -95 -36v67c16.667 0 30.334 4.83301 41.001 14.5s16 23.5 16 41.5v17h-59v133h133v-128z" />
    <glyph glyph-name="dagger" unicode="&#x2020;" 
d="M509 436h-161v-564h-133v564h-163v118h163v186h133v-186h161v-118z" />
    <glyph glyph-name="daggerdbl" unicode="&#x2021;" 
d="M509 259h-163v-387h-133v387h-161v118h161v97h-161v118h161v148h133v-148h163v-118h-163v-97h163v-118z" />
    <glyph glyph-name="bullet" unicode="&#x2022;" horiz-adv-x="600" 
d="M500 318c0 -55.333 -19.5 -102.5 -58.5 -141.5s-86.167 -58.5 -141.5 -58.5s-102.5 19.5 -141.5 58.5s-58.5 86.167 -58.5 141.5s19.5 102.5 58.5 141.5s86.167 58.5 141.5 58.5s102.5 -19.5 141.5 -58.5s58.5 -86.167 58.5 -141.5z" />
    <glyph glyph-name="ellipsis" unicode="&#x2026;" horiz-adv-x="1000" 
d="M899 0h-133v133h133v-133zM566 0h-133v133h133v-133zM233 0h-133v133h133v-133z" />
    <glyph glyph-name="perthousand" unicode="&#x2030;" horiz-adv-x="1280" 
d="M1248 162c0 -50 -17.5 -92.5 -52.5 -127.5s-77.5 -52.5 -127.5 -52.5s-92.5 17.5 -127.5 52.5s-52.5 77.5 -52.5 127.5s17.5 92.5 52.5 127.5s77.5 52.5 127.5 52.5s92.5 -17.5 127.5 -52.5s52.5 -77.5 52.5 -127.5zM835 162c0 -50 -17.5 -92.5 -52.5 -127.5
s-77.5 -52.5 -127.5 -52.5s-92.5 17.5 -127.5 52.5s-52.5 77.5 -52.5 127.5s17.5 92.5 52.5 127.5s77.5 52.5 127.5 52.5s92.5 -17.5 127.5 -52.5s52.5 -77.5 52.5 -127.5zM631 740l-306 -740h-102l306 740h102zM380 573c0 -50 -17.501 -92.499 -52.501 -127.499
s-77.167 -52.5 -126.5 -52.5s-91.666 17.667 -126.999 53s-53 77.666 -53 126.999c0 50 17.5 92.5 52.5 127.5s77.5 52.5 127.5 52.5c49.333 0 91.5 -17.5 126.5 -52.5s52.5 -77.5 52.5 -127.5zM1137 162.001c0 19.333 -6.66699 35.666 -20 48.999s-29.666 20 -48.999 20
s-35.666 -6.66699 -48.999 -20s-20 -29.666 -20 -48.999s6.66699 -35.666 20 -48.999s29.666 -20 48.999 -20s35.666 6.66699 48.999 20s20 29.666 20 48.999zM723.999 162.001c0 19.333 -6.66699 35.666 -20 48.999s-29.666 20 -48.999 20s-35.666 -6.66699 -48.999 -20
s-20 -29.666 -20 -48.999s6.66699 -35.666 20 -48.999s29.666 -20 48.999 -20s35.666 6.66699 48.999 20s20 29.666 20 48.999zM268.999 573.001c0 19.333 -6.66602 35.6689 -19.999 49.002s-29.333 20 -48 20s-34.834 -6.83301 -48.501 -20.5s-20.5 -29.834 -20.5 -48.501
c0 -18 6.66699 -34 20 -48s29.333 -21 48 -21c18 0 34 6.66699 48 20s21 29.666 21 48.999z" />
    <glyph glyph-name="guilsinglleft" unicode="&#x2039;" horiz-adv-x="240" 
d="M175 136l-139 131v101l139 130v-123l-67 -57l67 -59v-123z" />
    <glyph glyph-name="guilsinglright" unicode="&#x203a;" horiz-adv-x="240" 
d="M204 267l-139 -131v123l68 59l-68 57v123l139 -130v-101z" />
    <glyph glyph-name="trademark" unicode="&#x2122;" horiz-adv-x="1000" 
d="M929 336h-88v326l-119 -326h-52l-119 326v-326h-88v404h142l91 -239l91 239h142v-404zM414 662h-123v-326h-97v326h-123v78h343v-78z" />
    <glyph glyph-name=".null" horiz-adv-x="0" 
 />
    <glyph glyph-name="nonmarkingreturn" horiz-adv-x="233" 
 />
    </font>
</defs>
</svg>
